<svg id="Capa_1" data-name="Capa 1" xmlns="http://www.w3.org/2000/svg" viewBox="0 0 73.1 61.5"><defs><style>.cls-1{fill:#fff;}</style></defs><title>hamburger-menu-white</title><g id="Navigation"><path class="cls-1" d="M167.2,177.4h64.7a4.3,4.3,0,0,0,0-8.6H167.2A4.3,4.3,0,0,0,167.2,177.4Zm64.7,17.9H167.2a4.3,4.3,0,0,0,0,8.6h64.7a4.25,4.25,0,0,0,4.2-4.3A4.13,4.13,0,0,0,231.9,195.3Zm0,26.4H167.2a4.3,4.3,0,0,0,0,8.6h64.7a4.25,4.25,0,0,0,4.2-4.3A4.18,4.18,0,0,0,231.9,221.7Z" transform="translate(-163 -168.8)"/></g></svg>