<?xml version="1.0" encoding="utf-8"?>
<!-- Generator: Adobe Illustrator 19.2.1, SVG Export Plug-In . SVG Version: 6.00 Build 0)  -->
<svg version="1.1" id="Capa_1" xmlns="http://www.w3.org/2000/svg" xmlns:xlink="http://www.w3.org/1999/xlink" x="0px" y="0px"
	 viewBox="0 0 73.2 73.2" style="enable-background:new 0 0 73.2 73.2;" xml:space="preserve">
<style type="text/css">
	.st0{fill:#666666;}
</style>
<g id="Navigation">
	<path class="st0" d="M4.2,17.1h64.7c2.3,0,4.2-1.4,4.2-3.2s-1.9-3.2-4.2-3.2H4.2c-2.3,0-4.2,1.4-4.2,3.2S1.9,17.1,4.2,17.1z
		 M68.9,33.5H4.2c-2.3,0-4.2,1.4-4.2,3.2c0,1.8,1.9,3.2,4.2,3.2h64.7c2.3,0,4.2-1.4,4.2-3.2C73.2,34.9,71.3,33.5,68.9,33.5z
		 M68.9,56.1H4.2c-2.3,0-4.2,1.4-4.2,3.2s1.9,3.2,4.2,3.2h64.7c2.3,0,4.2-1.4,4.2-3.2C73.2,57.6,71.3,56.1,68.9,56.1z"/>
</g>
</svg>
