<?xml version="1.0" encoding="utf-8"?>
<!-- Generator: Adobe Illustrator 19.2.1, SVG Export Plug-In . SVG Version: 6.00 Build 0)  -->
<svg version="1.1" id="Capa_1" xmlns="http://www.w3.org/2000/svg" xmlns:xlink="http://www.w3.org/1999/xlink" x="0px" y="0px"
	 viewBox="0 0 221.1 61.5" style="enable-background:new 0 0 221.1 61.5;" xml:space="preserve">
<style type="text/css">
	.st0{fill:#666666;}
</style>
<title>hamburger-menu-white</title>
<g id="Navigation">
	<path class="st0" d="M152.2,8.6h64.7c2.4,0,4.3-1.9,4.3-4.3S219.3,0,216.9,0h-64.7c-2.4,0-4.3,1.9-4.3,4.3S149.8,8.6,152.2,8.6z
		 M216.9,26.5h-64.7c-2.4,0-4.3,1.9-4.3,4.3s1.9,4.3,4.3,4.3h64.7c2.3,0,4.2-2,4.2-4.3c0,0,0,0,0,0c0.1-2.3-1.7-4.2-4-4.3
		C217.1,26.5,217,26.5,216.9,26.5L216.9,26.5z M216.9,52.9h-64.7c-2.4,0-4.3,1.9-4.3,4.3s1.9,4.3,4.3,4.3h64.7c2.3,0,4.2-2,4.2-4.3
		c0,0,0,0,0,0c0.1-2.3-1.8-4.2-4.1-4.3C217,52.9,216.9,52.9,216.9,52.9L216.9,52.9z"/>
</g>
<g>
	<path class="st0" d="M26.7,45.6l-9.3-25.9h-0.2c-0.3,3.8-0.6,7.2-0.8,10.2c-0.1,1.3-0.2,2.6-0.3,3.8c-0.1,1.2-0.2,2.4-0.3,3.4
		c-0.1,1-0.1,1.9-0.2,2.6c0,0.7-0.1,1.1-0.1,1.3c0,1,0.5,1.5,1.5,1.5h1.2c0.3,0,0.5,0,0.8,0l0.1,0.2l-0.4,2.2
		c-0.6,0-1.2-0.1-1.7-0.1c-0.5,0-1-0.1-1.5-0.1c-0.5,0-1,0-1.4,0c-0.5,0-1,0-1.5,0c-0.5,0-0.9,0.1-1.3,0.1c-0.5,0.1-0.9,0.1-1.3,0.2
		l0.2-2.2c1-0.1,1.8-0.4,2.2-1c0.4-0.5,0.7-1.4,0.9-2.7c0.1-0.6,0.2-1.5,0.3-2.6c0.1-1.2,0.3-2.5,0.4-4c0.2-1.5,0.3-3,0.5-4.5
		c0.2-1.6,0.3-3,0.5-4.4c0.1-1.3,0.3-2.5,0.3-3.4c0.1-0.9,0.1-1.5,0.1-1.8c0-0.8-0.3-1.5-1-1.9c-0.7-0.4-1.7-0.7-3.2-0.8L11,15.5
		l0.4-1.7c0.7,0.1,1.4,0.1,2,0.1c0.5,0,1.1,0.1,1.7,0.1c0.6,0,1.1,0,1.5,0c0.4,0,0.7,0,1.1,0c0.4,0,0.7,0,1.1-0.1
		c0.4,0,0.7-0.1,1.1-0.1c1.1,3.5,2.1,6.7,3.1,9.6c1,2.9,1.8,5.4,2.6,7.5c0.9,2.5,1.7,4.7,2.4,6.7h0.2c0.8-2,1.6-4.2,2.4-6.7
		c0.7-2.1,1.6-4.6,2.6-7.5c1-2.9,2.1-6.1,3.2-9.6c0.5,0,0.9,0,1.2,0c0.3,0,0.7,0,1,0c0.4,0,0.7,0,0.9,0c0.4,0,0.8,0,1.4,0
		c0.6,0,1.2-0.1,1.7-0.1c0.6,0,1.3-0.1,2.1-0.1L45,14l-0.2,1.8c-1.4,0.2-2.4,0.4-3,0.8c-0.6,0.4-0.8,1-0.8,1.8c0,0.2,0,0.7,0,1.5
		c0,0.8,0.1,1.7,0.1,2.7c0.1,1.1,0.1,2.3,0.2,3.6c0.1,1.3,0.2,2.7,0.3,4c0.1,1.4,0.2,2.7,0.3,4.1c0.1,1.3,0.2,2.6,0.3,3.7
		c0.1,0.9,0.2,1.7,0.3,2.3c0.1,0.6,0.3,1.1,0.4,1.4s0.4,0.6,0.6,0.7c0.3,0.1,0.6,0.2,1,0.2c0.2,0,0.3,0,0.4,0c0.1,0,0.3,0,0.4,0
		c0.1,0,0.3,0,0.5,0l0.1,0.2l-0.4,2.2c-0.5,0-1.1,0-1.6,0c-0.4,0-0.9-0.1-1.5-0.1c-0.5,0-1,0-1.5,0c-0.5,0-1.1,0-1.7,0
		c-0.6,0-1.1,0.1-1.6,0.1C37.1,44.9,36.6,45,36,45l0.2-2.2c1.9-0.2,2.8-1,2.8-2.4c0-0.2,0-0.6-0.1-1.3s-0.1-1.6-0.2-2.6
		c-0.1-1-0.2-2.1-0.3-3.4c-0.1-1.2-0.2-2.5-0.3-3.7c-0.3-2.9-0.5-6.2-0.8-9.7h-0.2l-9.3,25.5L26.7,45.6z"/>
	<path class="st0" d="M53.7,32.3V33c0,1.3,0.2,2.6,0.5,3.7c0.3,1.1,0.8,2,1.4,2.8s1.4,1.4,2.3,1.8c0.9,0.4,1.8,0.6,2.9,0.6
		c0.7,0,1.5-0.1,2.2-0.2c0.7-0.1,1.4-0.3,1.9-0.5c0.6-0.2,1.2-0.5,1.8-0.8l0.3,0.1l0.5,1.4c-0.9,0.6-1.7,1.2-2.6,1.6
		c-0.7,0.4-1.5,0.8-2.4,1.1c-0.8,0.3-1.6,0.5-2.4,0.5c-1.5,0-2.9-0.3-4.1-0.8c-1.2-0.5-2.3-1.2-3.2-2.2c-0.9-0.9-1.6-2-2-3.3
		c-0.5-1.3-0.7-2.7-0.7-4.3c0-1.6,0.3-3.2,0.9-4.7c0.6-1.5,1.3-2.8,2.3-3.9c1-1.1,2.1-2,3.4-2.7c1.3-0.7,2.6-1,4.1-1
		c4.8,0,7.2,2.3,7.2,7c0,0.7-0.1,1.1-0.1,1.3c0,0.2-0.1,0.6-0.2,1l-0.6,0.6H53.7z M62.5,30.1c0.5-0.1,0.8-0.2,1-0.3
		c0.2-0.2,0.2-0.5,0.2-1c0-1.3-0.3-2.3-1-2.9c-0.7-0.7-1.7-1-3-1c-1.5,0-2.8,0.5-3.9,1.5c-1.1,1-1.8,2.4-2,4.2L62.5,30.1z"/>
	<path class="st0" d="M85.4,43.3c1-0.3,1.6-0.6,2.1-1.1c0.4-0.5,0.6-1.2,0.6-2l0.2-9.5c0-1.6-0.3-2.8-1-3.7c-0.7-0.9-1.7-1.3-3-1.3
		c-0.6,0-1.2,0.1-1.8,0.3c-0.6,0.2-1.2,0.4-1.7,0.7c-0.5,0.3-1,0.5-1.4,0.8c-0.4,0.3-0.8,0.5-1,0.7c0,0.8-0.1,1.8-0.1,3
		c0,1.2-0.1,2.3-0.1,3.5c0,1.2-0.1,2.2-0.1,3.2c0,1,0,1.7,0,2.2c0,1,0.1,1.7,0.4,2.1c0.3,0.4,0.7,0.6,1.3,0.6c0.2,0,0.3,0,0.5,0
		s0.4,0,0.5,0c0.2,0,0.4,0,0.6,0l0.1,0.2l-0.4,2.1c-0.5,0-1,0-1.5,0c-0.4,0-0.9-0.1-1.4-0.1c-0.5,0-1,0-1.4,0c-0.5,0-1,0-1.6,0
		c-0.6,0-1.1,0.1-1.5,0.1c-0.6,0.1-1.1,0.1-1.6,0.1l0.2-2c0.9-0.2,1.6-0.4,2-0.9c0.4-0.4,0.6-1.1,0.6-2V28.4c0-1.1-0.2-1.8-0.5-2.3
		c-0.4-0.4-1-0.6-1.8-0.6h-0.5l-0.1-0.2l0.1-1.6c0.8-0.1,1.6-0.3,2.4-0.4c0.8-0.2,1.5-0.3,2.2-0.5c0.7-0.2,1.4-0.3,2.1-0.5l0.3,0.4
		c-0.1,0.3-0.2,0.6-0.2,1c-0.1,0.3-0.1,0.6-0.2,1c0,0.4-0.1,0.8-0.1,1.2l0.1,0.1c0.3-0.2,0.7-0.5,1.4-0.9c0.6-0.4,1.3-0.8,2-1.2
		c0.7-0.4,1.4-0.8,2.1-1.1c0.7-0.3,1.2-0.5,1.6-0.5c2,0,3.6,0.6,4.8,1.7c1.2,1.1,1.8,2.6,1.8,4.5c0,0.4,0,1.1-0.1,2.1
		c-0.1,1-0.1,2-0.2,3.2c-0.1,1.2-0.2,2.3-0.2,3.4c-0.1,1.1-0.1,2-0.1,2.7c0,1.8,0.6,2.7,1.7,2.7c0.2,0,0.3,0,0.5,0
		c0.2,0,0.4,0,0.5,0c0.2,0,0.4,0,0.6,0l0.1,0.2l-0.4,2.1c-0.5,0-1,0-1.5,0c-0.4,0-0.9-0.1-1.4-0.1c-0.5,0-0.9,0-1.4,0
		c-0.5,0-1.1,0-1.6,0.1C88,44.8,87.4,44.9,87,45c-0.6,0.1-1.2,0.2-1.7,0.3L85.4,43.3z"/>
	<path class="st0" d="M101.1,28c0-1.7-0.6-2.6-1.8-2.6c-0.2,0-0.5,0-0.8,0.1c-0.1,0-0.3,0.1-0.4,0.1l0.2-1.8
		c0.7-0.1,1.5-0.3,2.3-0.4c0.8-0.2,1.6-0.3,2.2-0.5c0.8-0.2,1.6-0.3,2.3-0.5l0.3,0.6c-0.2,0.4-0.3,1.1-0.5,2.1
		c-0.1,1-0.3,2.2-0.4,3.5c-0.1,1.3-0.2,2.7-0.3,4.2c-0.1,1.5-0.1,3-0.1,4.4c0,3.1,1.3,4.7,3.8,4.7c1.1,0,2.2-0.3,3.1-0.9
		c1-0.6,1.9-1.2,2.7-1.8V28.1c0-1-0.2-1.6-0.5-2c-0.4-0.4-1-0.6-1.9-0.6c-0.1,0-0.2,0-0.3,0c-0.1,0-0.3,0-0.4,0h-0.5l0.2-1.7
		c0.8-0.1,1.7-0.3,2.6-0.4c0.9-0.1,1.7-0.3,2.4-0.5c0.8-0.2,1.6-0.3,2.4-0.5l0.3,0.6c-0.2,0.4-0.3,1.1-0.4,2.1
		c-0.1,1.1-0.2,2.4-0.3,3.9c-0.1,1.5-0.2,3.2-0.2,5c0,1.8-0.1,3.7-0.1,5.6c0,1.5,0.7,2.2,2,2.2c0.4,0,0.8-0.1,1.1-0.2
		c0.4-0.1,0.7-0.2,0.9-0.4c0.3-0.2,0.6-0.4,0.9-0.6l0.7,0.8c-0.5,0.7-1,1.3-1.5,1.9c-0.4,0.5-0.9,0.9-1.4,1.3
		c-0.5,0.4-0.9,0.6-1.3,0.6c-2.6,0-4-1.3-4.3-3.9l-0.2-0.1c-1.5,1.2-2.9,2.1-4.2,2.9c-1.2,0.7-2.1,1.1-2.5,1.1
		c-2.1,0-3.7-0.5-4.8-1.4s-1.6-2.3-1.6-4.2L101.1,28z"/>
</g>
</svg>
