<?xml version="1.0" encoding="utf-8"?>
<!-- Generator: Adobe Illustrator 19.2.1, SVG Export Plug-In . SVG Version: 6.00 Build 0)  -->
<svg version="1.1" id="Capa_1" xmlns="http://www.w3.org/2000/svg" xmlns:xlink="http://www.w3.org/1999/xlink" x="0px" y="0px"
	 viewBox="0 0 500 500" style="enable-background:new 0 0 500 500;" xml:space="preserve">
<style type="text/css">
	.st0{opacity:0.78;}
	.st1{fill:#FFFFFF;}
</style>
<g class="st0">
	<g>
		<path class="st1" d="M171.5,315.2c-7.4-1.1-22.7-4.7-34.7-7.4c17.3,56.2,65.2,99,124,108.4c-0.7-0.3-1.3-0.6-2-0.8
			C193.6,377.1,171.5,315.2,171.5,315.2z"/>
		<path class="st1" d="M154.9,191.1c0,0-0.4-6,0.6-15.9c-6,9.2-11.1,19.1-15.1,29.5C146.8,197.6,152.3,193.1,154.9,191.1z"/>
		<path class="st1" d="M154.4,229c-13.2,12.8-20.3,30.6-24,44.5c0.6,7.7,1.7,15.2,3.4,22.5l33.4,5.5
			C167.1,301.5,155.8,267.6,154.4,229z"/>
		<path class="st1" d="M285.2,104.6c-39.7,0-75.9,15.1-103.4,39.9c-4.2,8.2-7,18.5-8.8,31.7c0,0,42.1-35.8,117.5-27
			c18.9,0.8,16.6,17.4,16.5,22.5c-68.7-5.7-102.3,13.9-135.6,42.4c6.4,63.4,21.7,89.2,21.7,89.2s86.8,4,152.8-43.2
			c8.3-6.1,15.4-6.5,17.2,3.8c1,8.4,1.9,19.5-7.6,24c-29,13.5-60.9,22.1-92.7,26.6c-20.6,2.9-32,3.8-62.8,3.1
			c0,0,29.4,68.2,102.7,86.7c23.1,3.8,40.5,1,52.2-2.8c50.9-25.8,85.8-78.9,85.8-140.2C440.5,174.9,370.9,104.6,285.2,104.6z"/>
		<path class="st1" d="M473.4,0H26.6C11.9,0,0,11.9,0,26.6v446.8C0,488.1,11.9,500,26.6,500h446.8c14.7,0,26.6-11.9,26.6-26.6V26.6
			C500,11.9,488.1,0,473.4,0z M455.2,253.9c-1.4,13.6-3.7,29.1-8,42.1c-17.8,52.9-42.5,87.5-99,118.9c-5.2,3.7-10.8,6.9-16.3,8.8
			c-10.2,3.5-21.1,4.3-32.4,3.1c-4.7,0.4-9.5,0.6-14.3,0.6c-75.8,0-139.5-51.6-158.7-121.9c-0.7-0.1-1.3-0.2-1.9-0.3
			c0,0-4.6,35.7,21.9,83.9c1.6,2.5,10.6,16.3,10.6,16.3s-50.4-26.6-51.8-105.7c-12.1-4.4-54.2-18.7-61.5-30.4
			c33,18,61.1,21.5,61.1,21.5s-0.2-0.2,0.5-6.4c2.7-24,10.2-43,18.6-57.4c5.7-27.1,17.9-51.8,34.9-72.3c2.9-12.4,7.8-27,16-42.5
			c3.6-6.7,7-11.1,16.1-15.3c60.3-28.1,119.9-35.3,180.9-3.5C430.4,123.8,462.2,187.6,455.2,253.9z"/>
	</g>
</g>
</svg>
