<svg id="Layer_1" data-name="Layer 1" xmlns="http://www.w3.org/2000/svg" viewBox="0 0 1158.35 538.6"><defs><style>.cls-1{fill:#7c7877;}</style></defs><title>ReverieLogoWhite</title><path class="cls-1" d="M726.38,431.77a11.82,11.82,0,0,0,.4,2.31q0.4,1.66,1,3.78l1.33,4.4q0.68,2.27,1.33,4.18t1,3.13a10.79,10.79,0,0,0,.4,1.15h0.29l10-15.71a7.53,7.53,0,0,0,1.51-3.82q0-1.73-4.11-2l-0.14-.29,0.79-2.67q1.59,0.22,2.78.32t2.49,0.18q1.3,0.07,2.23.07t2.09,0q1.08,0,2.09-.11l2.24-.14,0.22,0.43-0.79,2.52a14.74,14.74,0,0,0-3,.86,7.1,7.1,0,0,0-2.16,1.51,18.93,18.93,0,0,0-2.16,2.7q-1.15,1.69-2.88,4.29L735,451.45a10.38,10.38,0,0,0-1.15,2.05,13.39,13.39,0,0,0-.72,2.52q-0.29,1.48-.58,3.57t-0.72,5.12a8.86,8.86,0,0,0,.07,3.89q0.43,1.08,2.31,1.08h1.12a7.86,7.86,0,0,0,1.12-.07l1.15-.14,0.14,0.29-1,3.1q-1.59,0-3.17-.07-1.37-.07-2.85-0.11t-2.56,0a26.18,26.18,0,0,0-2.7.14q-1.41.14-2.56,0.29l-2.59.43,0.79-3.1a17.57,17.57,0,0,0,3-.94,4.25,4.25,0,0,0,1.8-1.4,6.34,6.34,0,0,0,1-2.24,26.49,26.49,0,0,0,.54-3.35l0.36-3.24a21.46,21.46,0,0,0,.07-3.89,18.69,18.69,0,0,0-1.08-4.4l-4.54-13.12q-0.79-2.23-1.33-3.78a9.52,9.52,0,0,0-1.26-2.52,4.28,4.28,0,0,0-1.91-1.44,12.73,12.73,0,0,0-3.21-.68l-0.14-.29,0.79-2.59,2.52,0.14q1.08,0.07,2.38.11t2.52,0q1.44,0,3.21-.07t3.21-.22q1.73-.14,3.46-0.36l0.14,0.5L732,429a26,26,0,0,0-2.88.36,6.37,6.37,0,0,0-1.69.54,1.84,1.84,0,0,0-.83.76A2.4,2.4,0,0,0,726.38,431.77Z" transform="translate(-65.19 -34.86)"/><path class="cls-1" d="M773.3,468.32a1.27,1.27,0,0,0,.58-0.14,7.9,7.9,0,0,0,.9-0.58q0.61-.43,1.59-1.26l2.63-2.27,0.86,0.07,0.94,1.73q-4.4,4.18-6.67,5.91t-3.42,1.73q-2.59,0-2.59-2.09a10.9,10.9,0,0,1,.11-1.12q0.11-.83.32-1.95t0.51-2.45q0.29-1.33.58-2.63l1.59-6.85-0.43-.14A74.24,74.24,0,0,1,764,466.95a33,33,0,0,1-6.7,6.56,4.71,4.71,0,0,1-4.25-2.56,14.32,14.32,0,0,1-1.51-7.24,27.76,27.76,0,0,1,1.44-8.76,30.82,30.82,0,0,1,3.78-7.78,22.15,22.15,0,0,1,5.3-5.55,10.18,10.18,0,0,1,6-2.13l7.21,1.15,0.65-1.8,0.36-.07,2.23,1.08,0.58,0.86q-1.23,4.18-2.31,8.65-1,3.89-2,8.76T773.09,468Zm-14.63-.65q1,0,2.63-1.73a36.57,36.57,0,0,0,3.6-4.72q2-3,4.11-7t4.07-8.5a18.23,18.23,0,0,0-3.82-1.73,11.62,11.62,0,0,0-3.46-.65,5.22,5.22,0,0,0-3.39,1.4,13.26,13.26,0,0,0-3,3.75,23.11,23.11,0,0,0-2.09,5.37,24.6,24.6,0,0,0-.79,6.27,19.81,19.81,0,0,0,.61,5.33Q757.8,467.67,758.67,467.67Z" transform="translate(-65.19 -34.86)"/><path class="cls-1" d="M789,460.6l0.72-4.61q0.36-2.31.65-4.25t0.47-3.35a18.45,18.45,0,0,0,.18-2,3.52,3.52,0,0,0-.68-2.45,3.27,3.27,0,0,0-2.42-.72h-3l0.5-2.74q1.66,0,3.68,0t3.82-.18q2.09-.07,4.18-0.22l0.65,0.86q-0.72,2.31-1.44,4.76-0.58,2.09-1.26,4.79t-1.19,5.37l0.29,0.07a63.39,63.39,0,0,1,3.28-6.38,46.56,46.56,0,0,1,3.53-5.23,21.92,21.92,0,0,1,3.39-3.53,4.85,4.85,0,0,1,2.85-1.3,6.22,6.22,0,0,1,2.09,5,6.86,6.86,0,0,1-.11,1.19q-0.11.61-.25,1.33l-0.58.22-0.58-.14-0.65-.14a4.1,4.1,0,0,0-.79-0.07,5.81,5.81,0,0,0-3.24,1.19,16.58,16.58,0,0,0-3.46,3.35,35.09,35.09,0,0,0-3.39,5.23,64.17,64.17,0,0,0-3.17,6.88L792,471.63a0.94,0.94,0,0,1-.54.43,12.63,12.63,0,0,1-1.26.58,10.6,10.6,0,0,1-1.48.47,5.55,5.55,0,0,1-1.19.18l-0.51-.65Q788.15,466.08,789,460.6Z" transform="translate(-65.19 -34.86)"/><path class="cls-1" d="M833,468.32a1.27,1.27,0,0,0,.58-0.14,7.9,7.9,0,0,0,.9-0.58q0.61-.43,1.59-1.26l2.63-2.27,0.86,0.07,0.94,1.73q-7.64,7.64-10.09,7.64-2.23,0-2.23-2.09a18.44,18.44,0,0,1,.86-4.68q0.87-3,1.87-6.38t1.87-6.49a19.94,19.94,0,0,0,.86-5,3.23,3.23,0,0,0-.68-2.13,2.19,2.19,0,0,0-1.77-.83,4.22,4.22,0,0,0-2.67,1.44,25.21,25.21,0,0,0-3.28,4,61.69,61.69,0,0,0-3.68,6.27q-1.91,3.68-3.78,8.07L817,471.63a0.94,0.94,0,0,1-.54.43,12.63,12.63,0,0,1-1.26.58,10.6,10.6,0,0,1-1.48.47,5.55,5.55,0,0,1-1.19.18l-0.51-.65q1.08-6.85,1.95-12.4,0.36-2.38.72-4.72t0.65-4.29q0.29-1.95.47-3.31a18.1,18.1,0,0,0,.18-1.8,2.92,2.92,0,0,0-.72-2.2,3.4,3.4,0,0,0-2.38-.68h-3l0.5-2.74q1.66,0,3.68,0t3.82-.18q2.09-.07,4.18-0.22l0.65,0.86q-0.87,2.52-1.66,5.41-0.72,2.45-1.48,5.51t-1.26,6.23l0.36,0.22A80.4,80.4,0,0,1,826.2,446a25.83,25.83,0,0,1,7.14-6.85,4.82,4.82,0,0,1,3.89,2,7.66,7.66,0,0,1,1.59,4.94,18.7,18.7,0,0,1-.76,4.69q-0.76,2.81-1.77,5.87t-2,6.09q-1,3-1.51,5.26Z" transform="translate(-65.19 -34.86)"/><path class="cls-1" d="M846.1,467.38a15.07,15.07,0,0,1,1.84-1.23,4.6,4.6,0,0,1,2.34-.65,3.17,3.17,0,0,1,2.59,1.44,6.89,6.89,0,0,1,1.08,4.18,8.7,8.7,0,0,1-1,4,16.92,16.92,0,0,1-2.45,3.57,21.75,21.75,0,0,1-3.28,3,40,40,0,0,1-3.39,2.27l-1.3-1.08v-0.72a15.13,15.13,0,0,0,4.07-4,8.3,8.3,0,0,0,1.62-4.68,6.16,6.16,0,0,0-.68-2.85,7.86,7.86,0,0,0-1.62-2.2Z" transform="translate(-65.19 -34.86)"/><path class="cls-1" d="M894.46,473.5l-4-.43-3.46-.29q-1.8-.15-3.1-0.14a26.22,26.22,0,0,0-2.7.14l-2.63.29-2.74.43,0.79-3.1a9.25,9.25,0,0,0,4.61-1.91,7.05,7.05,0,0,0,1.66-4.29l3.75-30.63a6.27,6.27,0,0,0-.11-3.1,1.94,1.94,0,0,0-1.91-.79c-0.24,0-.5,0-0.79,0s-0.55,0-.79,0a5.34,5.34,0,0,1-.86.07l-0.07-.29,0.79-3,2.59,0.14q1.08,0.07,2.34.07h2.27q1.23,0,2.85,0t3.21-.11l3.75-.14a25.17,25.17,0,0,1,8.47,1.37,19.39,19.39,0,0,1,6.63,3.89,17.8,17.8,0,0,1,4.32,6,18.92,18.92,0,0,1,1.55,7.75,28,28,0,0,1-2.09,10.77,28.85,28.85,0,0,1-5.69,8.9,27.18,27.18,0,0,1-8.43,6.05A24.11,24.11,0,0,1,894.46,473.5Zm0.86-43.82a4.41,4.41,0,0,0-1.95.29,1.67,1.67,0,0,0-.65,1.3q-2.38,15-3.75,23.35a94.9,94.9,0,0,0-1.37,10.31,6.93,6.93,0,0,0,.4,2.52,3.3,3.3,0,0,0,1.37,1.62,6.38,6.38,0,0,0,2.56.83,29.37,29.37,0,0,0,3.89.22,17.53,17.53,0,0,0,7.75-1.69,17.35,17.35,0,0,0,6-4.76,21.81,21.81,0,0,0,3.82-7.31,31.24,31.24,0,0,0,1.33-9.37q0-8.29-4.94-12.79T895.32,429.68Z" transform="translate(-65.19 -34.86)"/><path class="cls-1" d="M947,444.82a9.44,9.44,0,0,1-.94,4.22,11.06,11.06,0,0,1-3,3.6,25.54,25.54,0,0,1-5.33,3.24,69,69,0,0,1-7.89,3.06,14.59,14.59,0,0,0,1.12,7.42q1.41,2.81,3.93,2.81a7,7,0,0,0,4.32-1.69,13.34,13.34,0,0,0,3.6-4.5l1,0.07,1.08,1.73a19.62,19.62,0,0,1-5.3,6.27,10.43,10.43,0,0,1-6.31,2.45,7.09,7.09,0,0,1-6.13-3.17q-2.24-3.17-2.24-8.72a24.52,24.52,0,0,1,1.41-8.18,27.09,27.09,0,0,1,3.75-7.17,21.18,21.18,0,0,1,5.26-5.12,10.61,10.61,0,0,1,5.95-1.95,5.79,5.79,0,0,1,4.22,1.44A5.58,5.58,0,0,1,947,444.82Zm-8-1.44a4.85,4.85,0,0,0-2.85,1,11.26,11.26,0,0,0-2.59,2.7,19.22,19.22,0,0,0-2.09,4,23.66,23.66,0,0,0-1.33,4.87q6.27-1.95,9-4.11a6.38,6.38,0,0,0,2.74-5.12Q941.88,443.38,939,443.38Z" transform="translate(-65.19 -34.86)"/><path class="cls-1" d="M964.87,443.45a5.16,5.16,0,0,0-3.35,1.37,13,13,0,0,0-2.88,3.6,21.45,21.45,0,0,0-2,5.12,23.2,23.2,0,0,0-.76,5.91,16,16,0,0,0,1.33,7.17q1.33,2.63,3.64,2.63a7,7,0,0,0,4.36-1.77,12.58,12.58,0,0,0,3.5-4.5l1,0.07,1.08,1.73a19.62,19.62,0,0,1-5.3,6.27,10.43,10.43,0,0,1-6.31,2.45,7.09,7.09,0,0,1-6.13-3.17q-2.24-3.17-2.24-8.72a25,25,0,0,1,1.41-8.29,27.64,27.64,0,0,1,3.68-7.17,19.86,19.86,0,0,1,5.19-5,10.86,10.86,0,0,1,6-1.91,14.73,14.73,0,0,1,3.5.4,7.64,7.64,0,0,1,2.63,1.12l0.36,0.79-2.45,4.83-1,.22Q967.9,443.45,964.87,443.45Z" transform="translate(-65.19 -34.86)"/><path class="cls-1" d="M983.68,473.5a6.82,6.82,0,0,1-5.84-3.21q-2.24-3.2-2.24-8.61a27,27,0,0,1,1.33-8.47,26.52,26.52,0,0,1,3.57-7.21,18,18,0,0,1,5.23-5A11.74,11.74,0,0,1,992,439.2a7.23,7.23,0,0,1,6,2.81q2.2,2.81,2.2,7.93a31.07,31.07,0,0,1-1.3,9,25.76,25.76,0,0,1-3.57,7.49,19,19,0,0,1-5.26,5.12A11.65,11.65,0,0,1,983.68,473.5Zm2.88-4a5.25,5.25,0,0,0,3.31-1.19,9.8,9.8,0,0,0,2.59-3.28,19.75,19.75,0,0,0,1.69-4.94,29.66,29.66,0,0,0,.61-6.23,15.68,15.68,0,0,0-1.55-7.6,4.75,4.75,0,0,0-4.29-2.78,5.37,5.37,0,0,0-3.24,1.12,9.4,9.4,0,0,0-2.59,3.06,17.59,17.59,0,0,0-1.69,4.61,25.75,25.75,0,0,0-.61,5.77,23.36,23.36,0,0,0,.43,4.65,14.77,14.77,0,0,0,1.19,3.64,6.79,6.79,0,0,0,1.8,2.34A3.67,3.67,0,0,0,986.57,469.54Z" transform="translate(-65.19 -34.86)"/><path class="cls-1" d="M1009,460.6l0.72-4.61q0.36-2.31.65-4.25t0.47-3.35a18.45,18.45,0,0,0,.18-2,3.52,3.52,0,0,0-.68-2.45,3.27,3.27,0,0,0-2.42-.72h-3l0.5-2.74q1.66,0,3.68,0t3.82-.18q2.09-.07,4.18-0.22l0.65,0.86q-0.72,2.31-1.44,4.76-0.58,2.09-1.26,4.79t-1.19,5.37l0.29,0.07a63.39,63.39,0,0,1,3.28-6.38,46.56,46.56,0,0,1,3.53-5.23,21.92,21.92,0,0,1,3.39-3.53,4.85,4.85,0,0,1,2.85-1.3,6.22,6.22,0,0,1,2.09,5,6.86,6.86,0,0,1-.11,1.19q-0.11.61-.25,1.33l-0.58.22-0.58-.14-0.65-.14a4.1,4.1,0,0,0-.79-0.07,5.81,5.81,0,0,0-3.24,1.19,16.58,16.58,0,0,0-3.46,3.35,35.09,35.09,0,0,0-3.39,5.23,64.17,64.17,0,0,0-3.17,6.88l-1.08,8.14a0.94,0.94,0,0,1-.54.43,12.63,12.63,0,0,1-1.26.58,10.6,10.6,0,0,1-1.48.47,5.55,5.55,0,0,1-1.19.18l-0.51-.65Q1008.12,466.08,1009,460.6Z" transform="translate(-65.19 -34.86)"/><path class="cls-1" d="M1053.74,438.12a8.82,8.82,0,0,0,.68,3.53,8.06,8.06,0,0,0,2,2.77,9.13,9.13,0,0,0,3.06,1.84,11.31,11.31,0,0,0,3.93.65l18.81-1.23a9.18,9.18,0,0,0,3.57-.94,11.05,11.05,0,0,0,3.06-2.45l1.3,0.72-2,4a5.3,5.3,0,0,1-1.95,2.34,6.55,6.55,0,0,1-3.17.61h-7.06l-0.36.58a8.25,8.25,0,0,1,1.3,2.56,10.33,10.33,0,0,1,.5,3.21,14.7,14.7,0,0,1-1.55,6.59,17.87,17.87,0,0,1-4.18,5.48,20.4,20.4,0,0,1-13.51,5.08,17.34,17.34,0,0,1-5.3-.79,13.6,13.6,0,0,1-4.32-2.23,10.56,10.56,0,0,1-2.88-3.42,9,9,0,0,1-1-4.29,11.52,11.52,0,0,1,3.17-8,18.66,18.66,0,0,1,8.51-5.15,12.4,12.4,0,0,1-5.66-4.15,10.14,10.14,0,0,1-2-6.16,11.29,11.29,0,0,1,1.3-5.3,13.66,13.66,0,0,1,3.5-4.29,17.07,17.07,0,0,1,5.12-2.85,18.16,18.16,0,0,1,6.16-1,36.14,36.14,0,0,1,5.48.47,37.87,37.87,0,0,1,5.55,1.26l0.14,0.29q-0.43,1.08-.83,2.38t-0.79,2.7q-0.4,1.41-.72,2.81t-0.54,2.63l-3.31.29,0.29-1.44q0.14-.58.25-1.22a7,7,0,0,0,.11-1.15,4.46,4.46,0,0,0-1.69-3.71,8,8,0,0,0-5-1.33,11,11,0,0,0-7.24,2.2A7.51,7.51,0,0,0,1053.74,438.12Zm19.39,19.17a9.29,9.29,0,0,0-1.37-5.19,4.09,4.09,0,0,0-3.53-2.09h-8.36a43.2,43.2,0,0,0-4.61,2.49,14.86,14.86,0,0,0-3,2.45,7.52,7.52,0,0,0-1.62,2.63,9.28,9.28,0,0,0-.47,3,8.25,8.25,0,0,0,.72,3.46,8.65,8.65,0,0,0,5,4.61,11.1,11.1,0,0,0,3.86.65,15.08,15.08,0,0,0,5.26-.9,13.3,13.3,0,0,0,4.25-2.49,11.65,11.65,0,0,0,2.85-3.78A11.19,11.19,0,0,0,1073.13,457.29Z" transform="translate(-65.19 -34.86)"/><path class="cls-1" d="M1118,473.5a21.3,21.3,0,0,1-7.71-1.33,16.88,16.88,0,0,1-5.95-3.82,17.16,17.16,0,0,1-3.86-6,21.76,21.76,0,0,1-1.37-7.93,30.26,30.26,0,0,1,2.05-11.24,28.37,28.37,0,0,1,5.66-9,25.79,25.79,0,0,1,19.1-8.18,38.69,38.69,0,0,1,4.32.25q2.23,0.25,4,.61,2.09,0.36,4.11.79l0.22,0.43q-0.58,1.59-1.15,3.46-0.5,1.66-1.08,3.78t-1,4.58l-3.1.29,0.29-1.59q0.14-.65.25-1.37a8.87,8.87,0,0,0,.11-1.3q0-6.05-9.44-6.05a16.34,16.34,0,0,0-7.28,1.62,16.94,16.94,0,0,0-5.73,4.58,21.48,21.48,0,0,0-3.75,7.1,29.9,29.9,0,0,0-1.33,9.19,27,27,0,0,0,.94,7.35,16.92,16.92,0,0,0,2.7,5.66,12.07,12.07,0,0,0,10.05,4.94,18.07,18.07,0,0,0,3.89-.4,16.21,16.21,0,0,0,3.1-1,18.27,18.27,0,0,0,2.74-1.44l1.08-9.08q0.29-2.45-.36-3.17t-3-.72h-4.83l-0.07-.29,1-3.39,2.78,0.14q1.26,0.07,2.85.11t3.1,0q1.08,0,2.16,0c0.72,0,1.37-.06,1.95-0.11s1.3-.12,1.87-0.22l0.07,1.44q-2.16,1.44-2.88,6.42-0.15,1-.32,2.31t-0.32,2.56q-0.15,1.26-.25,2.34t-0.11,1.59v1.3a6.36,6.36,0,0,0,.07.86l-0.43.58a36.35,36.35,0,0,1-4.32,1.73A38.35,38.35,0,0,1,1124,473,33.79,33.79,0,0,1,1118,473.5Z" transform="translate(-65.19 -34.86)"/><path class="cls-1" d="M1151.61,468.32a1.5,1.5,0,0,0,.61-0.14,5.22,5.22,0,0,0,.94-0.61q0.61-.47,1.62-1.3t2.52-2.2l0.86,0.07,0.94,1.73a66,66,0,0,1-6.31,5.69q-2.56,1.95-3.78,1.95a2,2,0,0,1-1.69-.65,3.16,3.16,0,0,1-.47-1.87q1-6.27,1.8-11.39,0.36-2.16.68-4.36t0.61-4q0.29-1.84.43-3.14t0.14-1.8a2.54,2.54,0,0,0-3-3h-3l0.5-2.74q1.66,0,3.68,0t3.82-.18q2.09-.07,4.18-0.22l0.65,0.86q-1.23,4-2.31,8.51-1,3.89-2,8.72T1151.4,468Zm3.24-38.34a2.7,2.7,0,0,1-2.27-1,3.49,3.49,0,0,1-.76-2.2,4.81,4.81,0,0,1,1.3-3.31,4.26,4.26,0,0,1,3.32-1.44,2.62,2.62,0,0,1,2.2,1,3.49,3.49,0,0,1,.76,2.2,4.81,4.81,0,0,1-1.3,3.31A4.18,4.18,0,0,1,1154.86,430Z" transform="translate(-65.19 -34.86)"/><path class="cls-1" d="M1163.5,443.09l0.29-2.09,5.69-.86,0.65-5.77a19.9,19.9,0,0,1,1.77-6.09,17.29,17.29,0,0,1,3.35-4.79,15.21,15.21,0,0,1,4.61-3.17,13.35,13.35,0,0,1,5.48-1.15,27.55,27.55,0,0,1,3.89.29,16.81,16.81,0,0,1,3.39.79l0.29,0.79-2.23,4.54-1.37.22a14.52,14.52,0,0,0-7.14-2.38q-5.77,0-6.7,8.22l-1.08,8.87h16.22l0.29,0.22-0.5,2.74h-15.64l-0.72.43L1170.28,478q-0.65,5.77-3.6,8.9a9.94,9.94,0,0,1-7.57,3.14,9,9,0,0,1-4.14-.94,4.41,4.41,0,0,1-2.34-2.38,13.69,13.69,0,0,1,.43-1.48q0.29-.83.65-1.66t0.72-1.62q0.36-.79.65-1.3h1a6.17,6.17,0,0,0,1.33,4.36,4.67,4.67,0,0,0,3.71,1.62,4.44,4.44,0,0,0,3.35-1.62,7.52,7.52,0,0,0,1.84-4.07q0.43-3.53.54-6.52t0.32-5.95l2-24.5-0.51-.36-5-.22Z" transform="translate(-65.19 -34.86)"/><path class="cls-1" d="M1198,463.41l0.86,1.73q-1.51,1.73-3.1,3.24a39,39,0,0,1-3,2.63,21.72,21.72,0,0,1-2.67,1.8,4.5,4.5,0,0,1-2.09.68,4.2,4.2,0,0,1-3.32-1.3,4.25,4.25,0,0,1-.86-3.53l4-24.72-0.36-.29-5-.22-0.22-.36,0.29-2.09,5.77-.94q0.22-1.51.43-3.06t0.36-2.78q0.21-1.44.36-2.81l6.49-2.52,0.43,0.86q-0.43,1.44-.94,3.17-0.43,1.44-.94,3.35t-1,4l8.79-.07,0.29,0.22-0.58,2.88-8.5-.07-0.79.43-4.4,22.13q-0.36,2.52,1.66,2.52a5,5,0,0,0,2.59-1.12,49.45,49.45,0,0,0,4.54-3.86Z" transform="translate(-65.19 -34.86)"/><path class="cls-1" d="M1204.22,462.69a8,8,0,0,0,1.77,5.59,6.67,6.67,0,0,0,5.15,1.91,5.06,5.06,0,0,0,3.57-1.37,4.28,4.28,0,0,0,1.48-3.24,5.13,5.13,0,0,0-1.33-3.42,28.54,28.54,0,0,0-3.21-3.13q-1.23-1-2.41-2.09a21.41,21.41,0,0,1-2.16-2.27,11.62,11.62,0,0,1-1.59-2.52,6.72,6.72,0,0,1-.61-2.85,8.65,8.65,0,0,1,.9-3.86,10.25,10.25,0,0,1,2.45-3.21,12.4,12.4,0,0,1,3.6-2.2,11.38,11.38,0,0,1,4.29-.83,12.34,12.34,0,0,1,4.43.76,6.45,6.45,0,0,1,3,2.13,30.24,30.24,0,0,1-1.19,3q-0.76,1.66-1.26,2.67h-1a7.77,7.77,0,0,0-2.45-3.71,5.93,5.93,0,0,0-3.82-1.33,4.11,4.11,0,0,0-2.92,1.12,3.66,3.66,0,0,0-1.19,2.78,4.61,4.61,0,0,0,.58,2.27,9.2,9.2,0,0,0,1.59,2.05,32.58,32.58,0,0,0,2.78,2.59q1.55,1.3,3,2.7a15.71,15.71,0,0,1,2.38,3,6.8,6.8,0,0,1,1,3.57,8.92,8.92,0,0,1-1,4,11.36,11.36,0,0,1-2.63,3.42,13.48,13.48,0,0,1-3.82,2.38,11.52,11.52,0,0,1-4.47.9,12.94,12.94,0,0,1-5.58-1.08,5,5,0,0,1-2.85-3q0.22-.79.54-1.77t0.68-1.91q0.36-.93.72-1.77a14.4,14.4,0,0,1,.65-1.33h1Z" transform="translate(-65.19 -34.86)"/><path class="cls-1" d="M375.24,34.86h1a0.88,0.88,0,0,1,1,1l2-1a0.88,0.88,0,0,1,1,1l2-1h2a217.56,217.56,0,0,1,36.77,3,7.66,7.66,0,0,1,3-1q0,2,9.94,3l2-1q7,0.5,7,4h8q4,1.74,4,4l3-2q2,0,7.95,3a7.66,7.66,0,0,1,3-1l14.91,11.92-1,2q4.22,0,7.95,6,2.48,2,4,2v1h-2q0,0.5,8.94,7.95l-1,2v1q4.47,0,7,9.94a7.7,7.7,0,0,1,3,1l-1,4q0,1.74,2,6a0.88,0.88,0,0,0-1,1q1.49,0,3,3v2a0.88,0.88,0,0,1-1,1q0,0.74,3,7.95l-1,5a50.6,50.6,0,0,1,1,8l2-1,1,2a1.76,1.76,0,0,1-2,2v-2q-2.24,0-3,5,4,1.49,4,3v1l-3,6c1.32,0,2,.33,2,1a7.63,7.63,0,0,0-1,3h1l-2,5a1.91,1.91,0,0,1,2,2c0,1.33-1,2-3,2l1,5a1.91,1.91,0,0,0-2,2l1,5q-3,0-6,5v1l1,2a1.91,1.91,0,0,0-2,2,0.88,0.88,0,0,1,1,1,0.88,0.88,0,0,0-1,1,1.91,1.91,0,0,1,2,2,13.21,13.21,0,0,1-3,8h-1v5l-5,6h2v1q-2,2.24-5,9.94l1,2q-2.24,2.24-8.94,16.89-1.25,0-7.95,12.92-1.25,0-9.94,14.91-1.49,0-9.94,11.92,0,6.46-7.95,9.94,0,1.49-6,5,0,1.74-6,5,0,2.74-7,8,0,5-6,5l-6,7a7.7,7.7,0,0,0-3-1l1,2-4,3-2-1q0,4-2,4l-2-1q0,5.47-16.89,12.92,8.94,31.06,16.89,41.74a28.5,28.5,0,0,1,6,14.91q2.24,0,16.89,21.86a195.84,195.84,0,0,0,26.83,27.82q23.6,27.33,43.72,42.73,27.33,19.38,32.79,25.84,1.73,0,7.95,5,2.73,0,9.94,5,22.6,12.42,33.79,15.9v1l5-1-1,2v1h1v-2q8.94,1.24,8.94,3a0.88,0.88,0,0,0,1-1q15.9,1.49,15.9,3l5-1h9.94a0.88,0.88,0,0,1,1,1q5-3,7-3v1q27.08-6,33.79-17.89,4-5.22,7-18.88h2a1.76,1.76,0,0,0-2-2q0.75-6,2-6l-1-2v-3a0.88,0.88,0,0,1,1-1l-1-2a0.88,0.88,0,0,1,1-1q0-25.59-19.88-61.61-11.68-11.92-33.79-11.92h-3q-22.61,0-32.79,12.92l-7,8.94,1,2q-2.74,8.69-5,8.94a11.55,11.55,0,0,1,2,6,0.88,0.88,0,0,1-1,1l1,2-1,5q1.24,0,6,15.9Q599.32,482,615.72,482c0,0.66,1,1,3,1q2.24,0,11.92-3a0.88,0.88,0,0,0,1,1l8.94-8-2-3-2,1h-1a22.44,22.44,0,0,1-12.92-13.91v-1h1a7.64,7.64,0,0,1-1-3q0.49-4.72,10.93-8.94,15.9,0,21.86,17.89,0,16.64-12.92,23.85-5.22,6-10.93,6a0.88,0.88,0,0,0-1-1q0,3-13.91,4a0.88,0.88,0,0,0-1-1,1.76,1.76,0,0,1-2,2q-6.71-.5-13.91-6Q576,476.57,576,446.27q1-6,2-6l-1-2,2-3a7.89,7.89,0,0,0-1-4,49.9,49.9,0,0,1,15.9-21.86q19.62-7.21,19.87-8.94a7.64,7.64,0,0,1,3,1q9.93-2,11.92-2a7.66,7.66,0,0,0,3,1l5-2,6,3h2l5-1,1,2a0.88,0.88,0,0,0,1-1q7.95,0,15.9,7,7.45,2.73,18.88,23.85v4l-1,2q1.49,0,3,3a0.88,0.88,0,0,0-1,1q2.48,0,7,19.87a1.91,1.91,0,0,0-2,2c2,0,3,.66,3,2l-1,4,2,7.95-3,2a33.76,33.76,0,0,0,3,7.95v1q0,2-3,2l1,2v7h-1l-2-1v1a0.88,0.88,0,0,0,1,1q-3.73,17.89-18.88,39.75-4.47,7.95-24.84,19.87,0,0.75-10.93,5v-1q-15.9,6-20.87,6h-1a0.88,0.88,0,0,1-1-1q-3.73,3-13.91,4a30.68,30.68,0,0,0-7.95-1l-5,1a7.63,7.63,0,0,0-3-1,7.69,7.69,0,0,1-3,1q-3-1-3-2a0.88,0.88,0,0,0-1,1q-28.32-5.72-37.76-11.92l-2,1q-18.63-6.46-34.78-22.86Q488.52,527,488.52,525.76v-2q3,0,3,4h2l-21.86-28.82v1a7.66,7.66,0,0,1,1,3h-2q0-1.49-8.94-13.91a0.88,0.88,0,0,1,1-1h1v-2a9,9,0,0,1-8.94-6v-1h3a7.62,7.62,0,0,1-1-3l-2,1h-1q-2,0-6-9.94a0.88,0.88,0,0,0,1-1q-3.23,0-12.92-22.86a822.71,822.71,0,0,1-53.66-104.34l-2-1q-0.25,2.49-18.88,9.94l-2-1q-4,3-27.82,8.94a7.7,7.7,0,0,0-3-1q0,2-8,3v1l-5-1h-2a7.89,7.89,0,0,0-4,1l-2-1q-7.45,1-9.94,3a7.6,7.6,0,0,1-1-3l-3,2h-1a0.88,0.88,0,0,1-1-1,7.87,7.87,0,0,1-4,1l1,2v1a0.88,0.88,0,0,1-1,1l1,2q-3,3.23-3,5a7.7,7.7,0,0,1,1,3q-3,2.24-9.94,22.86-9.94,20.12-9.94,21.86Q253,439.55,253,445.27q-2,0-2-3h-1q0,1.49-2,4v1l3-2h1v1l-7.95,8.94a0.88,0.88,0,0,1,1,1q-3,1.24-8.94,13.91-4.72,0-6,4a0.88,0.88,0,0,1,1,1q-4,1.24-4,6l-2-1h-1q0,1.73-4,7,0,4.47-14.91,13.91v1h-1l-2-1q0,4-6,5v-1a126,126,0,0,1-23.85,12.92,0.88,0.88,0,0,0-1-1q0,1.49-3,3h-1l-2-1q0,3-2,3h-2l-2-1q-0.5,3-8,3l-5-1q0,2-3,2a7.65,7.65,0,0,1-3-1,29.29,29.29,0,0,1-7,1l-4-1-2,1a7.63,7.63,0,0,0-3-1,0.88,0.88,0,0,1-1,1q0-1.49-14.91-4L93,511.85q-26.83-20.37-26.83-34.78v-2a0.88,0.88,0,0,1,1-1q-2-4-2-10.93v-2a11.56,11.56,0,0,1,2-6,0.88,0.88,0,0,1-1-1l2-1-1-4q0-5.47,5-16.89a0.88,0.88,0,0,1-1-1q2.73,0,8.94-17.89,1,0,2-3a0.88,0.88,0,0,1-1-1q1.49,0,3-4l2,1h1v-1h-2v-2h2l-1-2q2.48-2,4-2l-1-2q5.46-6.46,8.94-8h1l2,1q0-1.49,3-4a0.88,0.88,0,0,1-1-1q5.71-4,8-4v1q9.19-7,30.81-7a7.66,7.66,0,0,0,3,1,1.91,1.91,0,0,1,2-2q1.74,1.74,11.92,3,0,1.49,3,3a0.88,0.88,0,0,1,1-1q3.73,3.23,8.94,10.93h1q0,4,2,12.92,0,13.17-17.89,22.86a0.88,0.88,0,0,1-1-1q-4,2-6,2l-2-1a29.34,29.34,0,0,1-7,1q-11.92-2.24-16.89-8.94l1-2q-3,0-3-5l1-2a7.62,7.62,0,0,1-1-3q2.24,0,8.94-8l5-1h6q6,3.48,6,8.94v4l-2,3q2,0,2,3h5q7.95,0,14.91-11.93-4.23-21.86-20.87-21.86h-4q-29.57,0-52.67,32.79-6.71,10.93-12.92,30.81h-1l1,2-3,5v1l2,3v1a0.88,0.88,0,0,1-1,1l1,2v1h-2q4.47,12.92,7.95,12.92-0.5,5-3,5v1h1a7.59,7.59,0,0,1,3-1,7.66,7.66,0,0,1,1,3,7.59,7.59,0,0,0-1,3q7,4.22,7,11.92h2v-1a7.63,7.63,0,0,1-1-3l2-1a1.91,1.91,0,0,1,2,2v3q7,7,9.94,7l-1,2a7.66,7.66,0,0,1,1,3l3-2a7.66,7.66,0,0,0,3,1,7.6,7.6,0,0,1,3-1,7.66,7.66,0,0,1,1,3,7.9,7.9,0,0,0,4-1,18.79,18.79,0,0,0,8.94,2q18.88,0,38.76-23.85,2,0,14.91-15.9,7-5.72,25.84-35.77l11.92-15.9a0.88,0.88,0,0,1-1-1,224.35,224.35,0,0,0,24.84-48.69q1.49-.24,9.94-17.89,0-1.24-7-8l-2,1q-38.76-31.55-39.75-39.75-3,0-7.95-15.9h1l-2-7,1-5-1-6h1l-1-2a15.37,15.37,0,0,1,4-8.94l-1-2q1.24-6.21,5-8.94a7.59,7.59,0,0,1-1-3q6-4,6-8.94l7-6q2,0,2-6l2,1,1-2a7.59,7.59,0,0,1-1-3q0.75,0,7-7h1l2,1q0-4,4-4v-1h-2q0-1.74,2-6a7.84,7.84,0,0,1-1-4h2v-1h-4v-4q1.74-4,4-4v-1c-2,0-3-.66-3-2v-1a1.91,1.91,0,0,1,2-2l-1-5v-1l2,1h1v-1h-2v-2l1-2a0.88,0.88,0,0,1-1-1,1.76,1.76,0,0,0,2-2v-1a7.9,7.9,0,0,0-1-4l11.92-30.81q6.46-7.45,27.82-38.76,9.44-11.18,37.76-34.78,2.48,0,17.89-12.92Q357.6,37.84,375.24,34.86ZM95,396.58v2h1v-2H95Zm27.82,116.27v1h2v-1h-2Zm4,0v1h2v-1h-2Zm28.82-5v2h1v-2h-1ZM169.53,495v3h1l-1,2v1h1a1.76,1.76,0,0,1,2-2v-1q-2,0-2-3h-1Zm7.95-7v2h2A1.76,1.76,0,0,0,177.48,488Zm5-4v1q0,2,3,2l-1,2h1q1.49,0,3-4h-1l-2,1a1.76,1.76,0,0,0-2-2h-1Zm0,15.9v2h1v-2h-1Zm3-22.86-1,2,2,1,1-2Zm6-5a0.88,0.88,0,0,1-1,1,7.66,7.66,0,0,1,1,3h2c0-1.33,1-2,3-2v-2h-1a7.7,7.7,0,0,1-3,1A0.88,0.88,0,0,0,191.4,472.1Zm-1,11.92v1h2v-1h-2Zm3-1v1h2v-1h-2Zm0,8v4h1v-4h-1Zm3-22.86a1.76,1.76,0,0,1-2,2v1h2l1-2v-1h-1Zm-1,8.94v2h2v-2h-2Zm1,6v1h2v-1h-2Zm2-19.87a7.7,7.7,0,0,1-1,3h3a7.59,7.59,0,0,1,1-3h-3Zm-1,25.84v2h1v-2h-1Zm1-13.91a1.91,1.91,0,0,0,2,2h1v-2h-3Zm4-16.89v1h2v-1h-2Zm0,8v1h2v-1h-2Zm6-18.88v1h2v-1h-2Zm2,33.79v2h1v-2h-1Zm3-250.42h1v2h-1v-2Zm1,76.52v2h1v-2h-1Zm1,152v3h1v-3h-1Zm0,27.82v1h2v-1h-2Zm1-184.83h2v-2A1.91,1.91,0,0,0,216.24,302.17Zm1-69.56v1h2v-1h-2Zm0,203.72h1a1.76,1.76,0,0,0,2-2h-1A1.91,1.91,0,0,0,217.23,436.33Zm0,6v2h2v-2h-2Zm1,25.84v1h2v-1h-2Zm2-220.61v1h4v-2A7.87,7.87,0,0,1,220.21,247.52Zm1-23.85v1h2v-1h-2Zm2,29.81v2a1.76,1.76,0,0,0,2-2h-2Zm0,5a1.91,1.91,0,0,0,2,2v-2h-2Zm0,174.9q1.49,4,3,4v-1a7.64,7.64,0,0,1-1-3h-2Zm0,32.79a1.91,1.91,0,0,0,2,2v-2h-2Zm2-248.43v2h2A1.76,1.76,0,0,0,225.18,217.71Zm1,103.35a1.91,1.91,0,0,0,2,2l1-2h-3Zm1,121.24v2h1v-2h-1Zm15.9-198.75q0,3-4,3l1,2-6,10.93,1,2v3c0,1.33-1,2-3,2l2,4a26.48,26.48,0,0,1-6,9.94v1l2-1q0,4.47,1,6a7.86,7.86,0,0,0-1,4,0.88,0.88,0,0,1,1,1,1.91,1.91,0,0,0-2,2v1h2l-2,3a1.91,1.91,0,0,1,2,2l-1,2q2.73,1.74,14.91,25.84Q256,337.7,259,338.94q10.18-17.64,17.89-41.74,1-5,4-5l-1-2,8.94-17.89q-14.41-6-15.9-6a7.64,7.64,0,0,1-3,1q-12.43-6.71-16.89-13.91Q252,253.48,243.07,243.54Zm-14.91,190.8h2v-2A1.91,1.91,0,0,0,228.16,434.34Zm1-18.88v1a7.62,7.62,0,0,1,3,1v-2h-3Zm0,23.85v3a1.76,1.76,0,0,0,2-2v-1h-2Zm2-7v2h1v-2h-1Zm1,5h2a7.59,7.59,0,0,1,3-1v-1h-3A1.91,1.91,0,0,0,232.14,437.32Zm2-227.57v1h2v-1h-2Zm0,27.82v1h2v-1h-2Zm0,222.6v1h2v-1h-2Zm2-33.79v2h3a1.76,1.76,0,0,0-2-2h-1Zm0,18.88a0.88,0.88,0,0,0,1,1l-1,2v1h2a7.85,7.85,0,0,1,1-4h-3Zm1-21.86h1l5-1v-2Q237.11,421.42,237.11,423.41Zm1,8a7.69,7.69,0,0,1-1,3l2,1a7.84,7.84,0,0,1,1-4h-2Zm0-33.79v1h2v-1h-2Zm3,28.82-2-1v1a0.88,0.88,0,0,1,1,1,32.56,32.56,0,0,1,7.95-1v-1a1.76,1.76,0,0,1-2-2h-1Zm1-16.89,2,1h2v-4h-1Q243.57,406.52,242.08,409.5Zm153-362.71a0.88,0.88,0,0,0-1-1q0,1.24-10.93,5v-1q-21.37,7-30.81,15.9h-6v2h-1l-2-1q-3.73,6-30.81,21.86,0,1-9.94,8.94,0,1.49-9.94,8v2h-1l-2-1q0,2.24-4,3,0,6.71-15.9,17.89Q255,146.16,255,149.14q-0.75,0-6,7l1,2q-3.73,3-7,25.84l1,2v6l-1,9.94h5l3,2h1l6-5h10.93l3,2a1.91,1.91,0,0,1,2-2,314.93,314.93,0,0,1,38.76,17.89q0.75-6.21,7.95-16.89,2.73-9.69,11.92-25.84,1-7,8.94-14.91l-1-2q8.94-19.13,14.91-25.84v2h1v-4h2v-3l-2,1v-3h4l-1-2a7.66,7.66,0,0,1,3-1v-1h-2v-2q1.24,0,5-6a0.88,0.88,0,0,0,1,1q0-2.48,6-6,0-2,5-8.94,0-5,12.92-12.92v2a1.76,1.76,0,0,0,2-2h-2q7.45-9.93,11.92-9.94l-2-3v-1q15.9-3.23,15.9-8l2,1,11.92-4q4.72,1,14.91,7h3q2,4,2,6Q433.12,83.3,409,103.43h-2l1,2q-11.43,14.91-12.92,14.91l-6,7,1,2q0,2-3,2l1,2v1h-1l-2-1q0,6-4,6l1,5v1q-4,0-12.92,17.89l-2,2,1,2v1q-3.73,6-6,6l1,2v1q-2.74,8-4,7.95a0.88,0.88,0,0,0-1-1v2h2q-3,12.43-7.95,19.87,0,1.49-2,8-2.49,0-3-4-1.49,0-3,3a7.93,7.93,0,0,0,5,2,59.34,59.34,0,0,0-2,8h-2l1-2h-1a7.86,7.86,0,0,1-4,1v1q4,0.5,4,3-5.47,11.92-6,11.92v1a1.91,1.91,0,0,0,2,2,1.91,1.91,0,0,1,2-2h1v5l2-1,7,5q0-1.74,7-6h5q0-2.24,5-8,0-5.22,5-7.95l-1-2v-1l1-2q-14.91-3.47-14.91-9.94,0.49-8.94,3-8.94a0.88,0.88,0,0,0,1,1l-1-5v-1q2,0,7.95-5l1,2,2-1h1q9.93,0,16.89,14.91a1.91,1.91,0,0,0-2,2q5,4.23,5,6-8.7,18.88-9.94,18.88l1,2a7.63,7.63,0,0,0-1,3h1q0,4-4,4l1,2v1l-3-2h-1l1,2a7.66,7.66,0,0,0-3,1,7.7,7.7,0,0,0-3-1v2l1,2q-5.22,8-6,7.95h-1a0.88,0.88,0,0,1-1-1,7.62,7.62,0,0,1-3,1l1,2v2l-1,2q4.47,2,5,4l-2,1h-3v-2l-2,1q1.49,6,7,6h1l-2-3v-1h1q2.24,0,4,7h1v3h-1l-3-2v1q0,3,5,3v1l-2,3a16.94,16.94,0,0,1,5,7h1v1l-1,2q1.24,0,7,13.91h1q13.42-5.71,37.76-34.78,0-3.23,12.92-18.88Q459.7,220.94,469.64,170q4.22-24.09,6-27.82l-1-2q0-2,1-2l-1-9.94v-7a0.88,0.88,0,0,1,1-1l-1-2v-1q0-24.6-16.89-50.68l1-2q-2.49,0-7-7-2.24,0-6-3l1-2v-1l-2,1-5-3a0.88,0.88,0,0,1-1,1q-1-4.72-27.82-6h-3Q404.05,44.8,395.11,46.78ZM244.06,335v1h2v-1h-2Zm0,82.48a1.91,1.91,0,0,0,2,2h1a1.76,1.76,0,0,0-2-2h-1Zm1-12.92h2v-2A1.91,1.91,0,0,0,245.06,404.53Zm0,9.94v2h2v-2h-2Zm5-172.91v1h2v-1h-2Zm1-20.87v1h2v-1h-2Zm0,184.83v1h2v-1h-2Zm2-179.86v1h2v-1h-2Zm2,9.94q18.63,23.85,30.81,23.85a16.66,16.66,0,0,1,8,2,228.37,228.37,0,0,1,15.9-34.78v-3q-5-6-13.91-6-13.17,0-38.76,13.91Zm1,158v1h2v-1h-2Zm4-13.91a7.66,7.66,0,0,1,1,3h1v-3h-2Zm6-8v2h1v-2h-1Zm1-111.3v1h2v-1h-2Zm5,98.38v2h1v-2h-1Zm5-24.84v2h1v-2h-1Zm0,9.94v3q3.23-2,5-2v-1h-5Zm1-35.78v1h3v-1h-3Zm0,22.86v2h1v-2h-1Zm1-232.53v2h1v-2h-1Zm1,219.61v1h2v-1h-2Zm0,44.72v1h3l1-2h-1A7.63,7.63,0,0,1,279.84,362.79Zm1-22.86v1h2v-1h-2Zm4-24.84v2h1v-2h-1Zm0,8.94v3h2v-3h-2Zm5-9.94v1a7.9,7.9,0,0,1,1,4,1.91,1.91,0,0,0-2,2l4,1v-1a7.85,7.85,0,0,1-1-4,0.88,0.88,0,0,0,1-1Zm1-51.67v1h3v-1h-3Zm0,49.69v1h2v-1h-2Zm54.66-43.72q0,3-7,3v-1q-4.72,3-12.92,3a0.88,0.88,0,0,0-1-1q-6.71,16.9-7.95,16.89l1,2q0,1.49-4,3l1,2v1h-2l1,2q-2,4-5,4v2a7.7,7.7,0,0,1,3,1q0,1.74-6,7v1h2v1a8.63,8.63,0,0,0-2,6l-3-2v2h2v2h-2a0.88,0.88,0,0,0,1,1q0,7.7-8.94,17.89l1,6a1.91,1.91,0,0,0-2,2,0.88,0.88,0,0,1,1,1q24.34-2,64.59-20.87,17.89-10.93,18.88-16.89a1.75,1.75,0,0,1-2-2,0.88,0.88,0,0,0,1-1q-5-2.73-5-4v-4l1-2a7.6,7.6,0,0,1-3-1l1-2q-0.5-3-5-7l1-2q0-.74-11.92-17.89v-2h-2a7.89,7.89,0,0,0-4,1A7.9,7.9,0,0,0,345.42,268.39Zm-47.7,33.79q0,3-2,3v1h3a0.88,0.88,0,0,1,1-1,7.59,7.59,0,0,1-1-3h-1Zm-1,6v2h2A1.76,1.76,0,0,0,296.73,308.14Zm1,3v1a1.91,1.91,0,0,0,2,2,1.76,1.76,0,0,0,2-2A7.85,7.85,0,0,1,297.73,311.12Zm1-10.93v1h2v-1h-2Zm0,14.91v2h1v-2h-1Zm2-19.87v1h2v-1h-2Zm5-217.63v1h2v-1h-2Zm7,146.08v2h1v-2h-1Zm9.94-9.94-1,2v1a1.91,1.91,0,0,0,2,2l1-2v-1A1.76,1.76,0,0,0,322.57,213.73Zm4,46.71v2h2v-2h-2Zm5-6,1,2v2h-2v2c1.32,0,2,.33,2,1q7.95-3,10.93-7v-1q-3.23-6.46-6-7h-1q-1.49,0-4,7.95h-1Zm3-82.48v1h2v-1h-2Zm3,54.66v1a1.76,1.76,0,0,0,2-2v-1A1.91,1.91,0,0,0,337.47,226.65Zm0,4,2,1v-3A1.91,1.91,0,0,0,337.47,230.63Zm3-3v2h1v-2h-1Zm1-3v2a1.76,1.76,0,0,0,2-2h-2Zm2-66.58v2h1v-2h-1Zm6,44.72a7.86,7.86,0,0,0-1,4l-2-1h-1v1q1.49,0,4,3h1v-1l-1-2A2,2,0,1,0,349.4,202.8Zm0-58.63v2h1v-2h-1Zm3,50.68v2a1.76,1.76,0,0,0,2-2h-2Zm3-6v2h1v-2h-1Zm4-49.69v2a7.66,7.66,0,0,1,3-1v-1h-3Zm2,122.23v2a1.76,1.76,0,0,0,2-2h-2Zm2-93.41-1,2h3A1.76,1.76,0,0,0,363.31,168Zm3,29.81v1h2v-1h-2Zm2-69.56v1h2v-1h-2Zm0,3v1h3v-1h-3Zm13.91,82.48v1h2v-1h-2Zm0,26.83v2h1v-2h-1Zm5-138.13v2h1v-2h-1Zm0,5v1h2v-1h-2Zm9.94-3v2a7.66,7.66,0,0,1,3-1,7.59,7.59,0,0,1-1-3A1.91,1.91,0,0,0,397.1,104.42Zm2,205.7v1h4l-1-2A7.64,7.64,0,0,1,399.09,310.12Zm5-236.51h1a1.76,1.76,0,0,0,2-2h-1A1.91,1.91,0,0,0,404.05,73.62Zm38.76,179.87v1h3v-1h-3Zm8,215.64v1q2.73,5,4,5v-1Q452.25,469.12,450.76,469.12Zm2-190.8v1h4v-1h-4Zm2-235.51a1.91,1.91,0,0,1,2,2h-2v-2Zm3,395.51v2h1v-2h-1Zm1,42.73v1h2v-1h-2Zm8.94-417.37v2h1v-2h-1Zm2,118.25v2h1v-2h-1Zm1-120.24v1h2v-1h-2Zm2,113.29v2a1.76,1.76,0,0,0,2-2h-2Zm0,77.51v2a1.76,1.76,0,0,0,2-2h-2Zm1,252.41a1.91,1.91,0,0,1,2,2v1a1.76,1.76,0,0,1-2-2v-1Zm2,4h1q0.75,0.25,10.93,12.92v2h-1Q475.6,512.1,475.6,508.87Zm14.91-305.08v1h2v-1h-2Zm1-42.73v1h2v-1h-2Zm0,38.76v1h2v-1h-2Zm3-90.43v1h2v-1h-2Zm4,2v1h3v-2A7.62,7.62,0,0,1,498.46,111.38Zm6-3v2h1v-2h-1Zm15.9,398.49v1h2v-1h-2Zm0,3v2h1v-2h-1Zm60.62,29.81v1h2v-1h-2Zm3-83.47v2h1v-2h-1Zm1,108.32v2h1v-2h-1Zm7.95-25.84v1h2v-1h-2Zm8.94,2v1h2v-1h-2Zm13.91,2v2h1v-2h-1ZM678.32,424.4l-1,2h3A1.76,1.76,0,0,0,678.32,424.4Zm13.91,46.71v2h1v-2h-1Z" transform="translate(-65.19 -34.86)"/><path class="cls-1" d="M541.69,220.69q26.83,0,26.83,15.9a1.91,1.91,0,0,1,2,2,0.88,0.88,0,0,1-1,1l1,2q-1.49,6-3,6l1,2a54.5,54.5,0,0,1-5,9.94l-2-1h-2l1,5q-9.94,9.94-9.94,12.92-10.93,5.47-10.93,7.95l-2-1h-1q0,4-11.92,7,0,0.74-3,3l-2-1q-3.23,0-8.94,4a1.75,1.75,0,0,1-2-2Q490,298.45,490,311.12q0,2-3,7l1,2q-0.75,7-2,7l2,5a1.91,1.91,0,0,0-2,2q1.24,0,4,7v1l-1,2q3,0,3,2v3l11.92,7.95a0.88,0.88,0,0,1,1-1q0,1.49,7,4a1.91,1.91,0,0,1,2-2l1,2q5.22-1,6-1t6,1q17.39,0,38.76-26.83,10.93-15.15,10.93-17.89,4.22-4.47,8.94-18.88l2-1h3a7.93,7.93,0,0,0,2,5q-3,0-3,9.94h-1l-2-1v4Q579.94,325,578.45,325l1,2a35.55,35.55,0,0,0-7.95,10.93q-1.49,0-3,2l1,2q-5,3.73-5,6a14.73,14.73,0,0,0-6,7l-24.84,15.9a7.7,7.7,0,0,0-3-1,1.76,1.76,0,0,1-2,2h-2a0.88,0.88,0,0,1-1-1,22.14,22.14,0,0,0-7,3h-1a0.88,0.88,0,0,1-1-1,11.55,11.55,0,0,1-6,2h-2a0.88,0.88,0,0,1-1-1,0.88,0.88,0,0,0-1,1q-9.94-1.24-9.94-4l-5,1h-3l-16.89-12.92v-2l1-2q-4,0-8-8h-1l1-2q-4.72,0-6-23.85h1a0.88,0.88,0,0,0-1-1q2-14.91,4-14.91l-1-2q10.18-30.06,22.86-44.72,3-5.71,10.93-9.94,8.94-12.92,19.87-16.89a0.88,0.88,0,0,0,1,1q0-3.23,20.87-10.93v1Zm-68.57,67.57v1h2v-1h-2Zm0,17.89v1h2v-1h-2Zm7,33.79v1h2v-1h-2ZM495,265.41v1h2v-1h-2Zm0,13.91v2h1v-2h-1Zm2-3v2h1v-2h-1Zm2,11.92v1q21.61-5.22,44.72-25.84,0-4.72,7.95-8.94l-1-2a28.68,28.68,0,0,0,5-8.94l-1-2,1-2q-0.75-7-5-7-17.39,6.71-20.87,14.91-12.67,9.19-16.89,19.87-4.23,3.23-11.92,18.88A1.91,1.91,0,0,0,499,288.26Zm14.91-37.76v2h1v-2h-1Zm0,34.78v2a1.76,1.76,0,0,0,2-2h-2Zm1-40.74v2h1v-2h-1Zm7.95-2v1h2v-1h-2Zm2-3v2h1v-2h-1Zm11.92,37.76v1h2v-1h-2Zm5-4v1h1a7.66,7.66,0,0,1,3-1v-1h-1A7.62,7.62,0,0,1,541.69,273.36Zm1,3v2h2A1.76,1.76,0,0,0,542.68,276.34Zm19.87-20.87v2h1v-2h-1Zm1-23.85v2h1v-2h-1Zm20.87,78.5v2h1v-2h-1Z" transform="translate(-65.19 -34.86)"/><path class="cls-1" d="M611.25,206.78q0,1,4,3a16.65,16.65,0,0,1,7.95-2h2q4,1.49,4,7a0.88,0.88,0,0,1-1,1,7.7,7.7,0,0,1,1,3q-2.74,10.94-4,10.93a0.88,0.88,0,0,0,1,1l-3,23.85a10.18,10.18,0,0,1,1,5h-1q2,5,2,7h-1a7.69,7.69,0,0,1,1,3l-1,2,2,4q0,5-2,5l1,2a0.88,0.88,0,0,1-1,1q1.24,1.49,2,9.94l-1,2,1,6v4l-1,2a1.91,1.91,0,0,1,2,2v11.92q3,13.92,3,16.89a7.64,7.64,0,0,0-1,3l2,1q2,0,5-6Q652,321.8,663.92,298.2q4.22-4.22,12.92-17.89,4-4,7-4v-2h-2v-2a1.91,1.91,0,0,1,2-2l2,1,1-2-1-5,2-1,2,1q0-5,2-5l-1-2a35,35,0,0,0,8.94-8h1v-2l-1-2q3,0,8-12.92h3l-1-5h1l2,1v-1a7.59,7.59,0,0,1-1-3q4.22-9.93,13.91-9.94,0,1.49,3,3-1.74,17.89-7.95,17.89l1,2v1q-3.23,6-7,7l1,2q-5.72,3.48-13.91,23.85-7.21,6-14.91,24.84-2,5-5,5a7.69,7.69,0,0,1,1,3,63.29,63.29,0,0,1-7,11.92l1,2q-1.74,1-17.89,22.86h-1l1,2a41.94,41.94,0,0,0-7,8.94l-22.86,20.87q-6.46,2-8.94,2h-4q-18.88-6-18.88-11.92l-6-25.84a0.88,0.88,0,0,1,1-1q-4-26.58-4-35.77v-4a7.9,7.9,0,0,0-1-4,7.89,7.89,0,0,0,1-4l-1-2a0.88,0.88,0,0,1,1-1l-1-7V265.41a0.88,0.88,0,0,1,1-1l-1-2a0.88,0.88,0,0,1,1-1q-2-4-2-6,1-11.93,1-17.89l-1-5a32.57,32.57,0,0,0,1-8v-1l-1-5a0.88,0.88,0,0,0,1-1,1.76,1.76,0,0,1-2-2q0-4.22,7-7.95a11.52,11.52,0,0,0,6,2h2Q600.81,209.76,611.25,206.78Zm7,8.94a1.91,1.91,0,0,0,2,2v-2h-2Z" transform="translate(-65.19 -34.86)"/><path class="cls-1" d="M780.93,220.69q26.83,0,26.83,15.9a1.91,1.91,0,0,1,2,2,0.88,0.88,0,0,1-1,1l1,2q-1.49,6-3,6l1,2a54.46,54.46,0,0,1-5,9.94l-2-1h-2l1,5q-9.94,9.94-9.94,12.92-10.94,5.47-10.93,7.95l-2-1h-1q0,4-11.93,7,0,0.74-3,3l-2-1q-3.23,0-8.94,4a1.75,1.75,0,0,1-2-2q-18.88,4.23-18.88,16.89,0,2-3,7l1,2q-0.75,7-2,7l2,5a1.91,1.91,0,0,0-2,2q1.24,0,4,7v1l-1,2q3,0,3,2v3l11.92,7.95a0.88,0.88,0,0,1,1-1q0,1.49,7,4a1.91,1.91,0,0,1,2-2l1,2q5.22-1,6-1t6,1q17.39,0,38.76-26.83,10.93-15.15,10.93-17.89,4.22-4.47,8.94-18.88l2-1h3a7.93,7.93,0,0,0,2,5q-3,0-3,9.94h-1l-2-1v4q-6.46,11.93-8,11.93l1,2a35.53,35.53,0,0,0-8,10.93q-1.49,0-3,2l1,2q-5,3.73-5,6a14.74,14.74,0,0,0-6,7L773,370.74a7.69,7.69,0,0,0-3-1,1.76,1.76,0,0,1-2,2h-2a0.88,0.88,0,0,1-1-1,22.14,22.14,0,0,0-7,3h-1a0.88,0.88,0,0,1-1-1,11.55,11.55,0,0,1-6,2h-2a0.88,0.88,0,0,1-1-1,0.88,0.88,0,0,0-1,1q-9.94-1.24-9.94-4l-5,1h-3l-16.89-12.92v-2l1-2q-4,0-8-8h-1l1-2q-4.72,0-6-23.85h1a0.88,0.88,0,0,0-1-1q2-14.91,4-14.91l-1-2q10.18-30.06,22.86-44.72,3-5.71,10.93-9.94,8.94-12.92,19.87-16.89a0.88,0.88,0,0,0,1,1q0-3.23,20.87-10.93v1Zm-68.57,67.57v1h2v-1h-2Zm0,17.89v1h2v-1h-2Zm7,33.79v1h2v-1h-2Zm14.91-74.53v1h2v-1h-2Zm0,13.91v2h1v-2h-1Zm2-3v2h1v-2h-1Zm2,11.92v1q21.61-5.22,44.72-25.84,0-4.72,8-8.94l-1-2a28.71,28.71,0,0,0,5-8.94l-1-2,1-2q-0.75-7-5-7-17.39,6.71-20.87,14.91-12.67,9.19-16.89,19.87-4.23,3.23-11.92,18.88A1.91,1.91,0,0,0,738.2,288.26ZM753.1,250.5v2h1v-2h-1Zm0,34.78v2a1.76,1.76,0,0,0,2-2h-2Zm1-40.74v2h1v-2h-1Zm8-2v1h2v-1h-2Zm2-3v2h1v-2h-1ZM776,277.33v1h2v-1h-2Zm5-4v1h1a7.66,7.66,0,0,1,3-1v-1h-1A7.62,7.62,0,0,1,780.93,273.36Zm1,3v2h2A1.76,1.76,0,0,0,781.92,276.34Zm19.87-20.87v2h1v-2h-1Zm1-23.85v2h1v-2h-1Zm20.87,78.5v2h1v-2h-1Z" transform="translate(-65.19 -34.86)"/><path class="cls-1" d="M775,360.8q0-1.24,7-7,2-4.72,10.93-10.93,0-3.73,8.94-9.94l15.9-22.86q10.43-13.91,17.89-35.78a18.37,18.37,0,0,0,7-14.91,7.66,7.66,0,0,1,3-1l-1-2q2-6.46,2-8.94v-1q-14.66-6-33.79-18.88-2,0-4-5a0.88,0.88,0,0,0,1-1q-1.25,0-6-8a0.88,0.88,0,0,1,1-1q-3-7.95-3-9.94v-9.94q1.49-15.9,9.94-15.9a0.88,0.88,0,0,0,1,1,14.82,14.82,0,0,1,12.92-7q17.89,0,33.79,14.91,7,14.91,7,26.83a141.84,141.84,0,0,1-5,22.86v5h5a10.13,10.13,0,0,0,5-1,29.1,29.1,0,0,0,7,1q15.4,0,51.67-14.91a1.91,1.91,0,0,0,2,2,1.91,1.91,0,0,1,2-2q16.89,12.67,16.89,14.91Q921.54,294,914.09,315.09a0.88,0.88,0,0,0,1,1q0,3.23-4,16.89l1,2v1l-1,2a1.91,1.91,0,0,1,2,2,1.91,1.91,0,0,0-2,2q0,12.18,16.89,25.84l9.94,1q13.42,0,29.81-23.85l20.87-38.76h1q2.73,0,4,8-2,0-8.94,19.87-1.25,0-9.94,15.9Q954.58,375.71,935,375.71h-4q-27.58,0-37.76-17.89-2.49,0-6-23.85,0-21.11,32.79-91.42v-1q-12.92,10.93-44.72,10.93-6-2-6-3l-2,1h-3l-3-2h-1q-1.49,0-6,17.89-3.73,9.69-6,9.94l1,2-7,12.92,1,2L816.7,331q-5.22,7-17.89,17.89,0,3.23-6,7-5.22,7-8.94,7l1,2v1q-1.49,0-13.66,8.2l-6-3.23Q766.52,365.28,775,360.8Zm52.67-159-2,3v4q6.71,17.64,24.84,26.83a7.85,7.85,0,0,1,1-4Q851.48,210.75,827.63,201.81Zm22.86-5h1a1.76,1.76,0,0,0,2-2h-1A1.91,1.91,0,0,0,850.49,196.84ZM894.21,323v2h2v-2h-2Zm8.94-26.83v1h2v-1h-2Zm2,29.81h2v-2A1.91,1.91,0,0,0,905.14,326Zm3-41.74v2h1v-2h-1Zm3,2v2a1.76,1.76,0,0,0,2-2h-2Zm3,12.92v1h2v-1h-2Z" transform="translate(-65.19 -34.86)"/><path class="cls-1" d="M1024.64,218.7l5,1a0.88,0.88,0,0,1,1-1q0,2,3,2a77.56,77.56,0,0,0,10.93-1q7,0.75,7,2l2-1q1.49,0,3,3-11.43,13.17-36.77,67.57a0.88,0.88,0,0,1,1,1q-1.74,0-10.93,28.82-1.25,0-3,11.92v5l2,3v1a0.88,0.88,0,0,1-1,1q9.93,20.87,16.89,20.87,0-1.74,8.94-5,9.93-5.22,18.88-23.85,8.94-17.14,8.94-20.87,3-10.93,7-10.93v-7.95a1.91,1.91,0,0,1,2-2h2q0,2,2,7h-1a0.88,0.88,0,0,0,1,1q-0.75,5.22-18.88,43.72-9.69,13.92-10.93,13.91a57.63,57.63,0,0,1-33.79,15.9l-2-1-2,1q-19.88-5.22-19.87-8.94-8-11.42-8-14.91v-1a0.88,0.88,0,0,1,1-1l-2-4a1.75,1.75,0,0,0,2-2,2.63,2.63,0,0,1-3-3q1.74-16.89,6-16.89l-1-2v-3q3.73-4,6-12.92l3-2-1-2q10.68-33.78,13.91-33.79l-1-2v-1q0-2,3-2l-1-2,8.94-20.87Q1019.92,218.7,1024.64,218.7ZM991.85,349.87v1h2v-1h-2Zm8.94-76.52v2a1.76,1.76,0,0,0,2-2h-2Zm1-2v1h2v-1h-2Zm0,17.89v1h2v-1h-2Zm3,77.51v1h2v-1h-2Zm31.8-222.6h3q10.68,0,13.91,17.89v6Q1046.75,179,1031.6,179q-8-6.21-7.95-13.91Q1023.65,153.37,1036.56,144.17Zm1,81.49v2a1.76,1.76,0,0,0,2-2h-2Z" transform="translate(-65.19 -34.86)"/><path class="cls-1" d="M1142.4,220.69q26.83,0,26.83,15.9a1.91,1.91,0,0,1,2,2,0.88,0.88,0,0,1-1,1l1,2q-1.49,6-3,6l1,2a54.46,54.46,0,0,1-5,9.94l-2-1h-2l1,5q-9.94,9.94-9.94,12.92-10.94,5.47-10.93,7.95l-2-1h-1q0,4-11.93,7,0,0.74-3,3l-2-1q-3.23,0-8.94,4a1.75,1.75,0,0,1-2-2q-18.88,4.23-18.88,16.89,0,2-3,7l1,2q-0.75,7-2,7l2,5a1.91,1.91,0,0,0-2,2q1.24,0,4,7v1l-1,2q3,0,3,2v3l11.92,7.95a0.88,0.88,0,0,1,1-1q0,1.49,7,4a1.91,1.91,0,0,1,2-2l1,2q5.22-1,6-1t6,1q17.39,0,38.76-26.83,10.93-15.15,10.93-17.89,4.22-4.47,8.94-18.88l2-1h3a7.93,7.93,0,0,0,2,5q-3,0-3,9.94h-1l-2-1v4q-6.46,11.93-8,11.93l1,2a35.53,35.53,0,0,0-8,10.93q-1.49,0-3,2l1,2q-5,3.73-5,6a14.74,14.74,0,0,0-6,7l-24.84,15.9a7.69,7.69,0,0,0-3-1,1.76,1.76,0,0,1-2,2h-2a0.88,0.88,0,0,1-1-1,22.14,22.14,0,0,0-7,3h-1a0.88,0.88,0,0,1-1-1,11.55,11.55,0,0,1-6,2h-2a0.88,0.88,0,0,1-1-1,0.88,0.88,0,0,0-1,1q-9.94-1.24-9.94-4l-5,1h-3l-16.89-12.92v-2l1-2q-4,0-8-8h-1l1-2q-4.72,0-6-23.85h1a0.88,0.88,0,0,0-1-1q2-14.91,4-14.91l-1-2q10.18-30.06,22.86-44.72,3-5.71,10.93-9.94,8.94-12.92,19.87-16.89a0.88,0.88,0,0,0,1,1q0-3.23,20.87-10.93v1Zm-68.57,67.57v1h2v-1h-2Zm0,17.89v1h2v-1h-2Zm7,33.79v1h2v-1h-2Zm14.91-74.53v1h2v-1h-2Zm0,13.91v2h1v-2h-1Zm2-3v2h1v-2h-1Zm2,11.92v1q21.61-5.22,44.72-25.84,0-4.72,8-8.94l-1-2a28.71,28.71,0,0,0,5-8.94l-1-2,1-2q-0.75-7-5-7-17.39,6.71-20.87,14.91-12.67,9.19-16.89,19.87-4.23,3.23-11.92,18.88A1.91,1.91,0,0,0,1099.67,288.26Zm14.91-37.76v2h1v-2h-1Zm0,34.78v2a1.76,1.76,0,0,0,2-2h-2Zm1-40.74v2h1v-2h-1Zm8-2v1h2v-1h-2Zm2-3v2h1v-2h-1Zm11.93,37.76v1h2v-1h-2Zm5-4v1h1a7.66,7.66,0,0,1,3-1v-1h-1A7.62,7.62,0,0,1,1142.4,273.36Zm1,3v2h2A1.76,1.76,0,0,0,1143.39,276.34Zm19.87-20.87v2h1v-2h-1Zm1-23.85v2h1v-2h-1Zm20.87,78.5v2h1v-2h-1Z" transform="translate(-65.19 -34.86)"/><path class="cls-1" d="M570,201.77a4.2,4.2,0,0,0-1.83-.53,18,18,0,0,1-3.66.37h-0.92q-1.83-.26-1.84-1.24c0-.12.15-0.18,0.46-0.18a1,1,0,0,1-.46-0.53q1.25-2,1.82-2c0-.12-0.15-0.18-0.46-0.18l1.36-4.27a1,1,0,0,1-.46-0.89h0.46a2.63,2.63,0,0,1-.92-1.24H564a1,1,0,0,1-.46-0.53l0.46-.36-0.92-.71a0.8,0.8,0,0,1,.91-0.89l-0.46-.35c0-.12.15-0.18,0.46-0.18a2.53,2.53,0,0,1-.92-1.77l0.46-.36-0.46-1.07v-0.71l0.46-.36c-0.61,0-.92-0.15-0.92-0.35v-2.13a11,11,0,0,1-1.38-3,1,1,0,0,0,.46-0.54l-0.92-.18a4.11,4.11,0,0,0-2.29,1.08,45,45,0,0,0-12.8,6.8,43,43,0,0,0-5.94,3.22,9.06,9.06,0,0,1-3.2.72v0.36h0.92v0.36a0.86,0.86,0,0,1-.91.36l-0.92-.18-0.46.36,0.46,0.89-0.91.18-0.92-.17a0.8,0.8,0,0,1-.91.89l0.46,0.35a20.27,20.27,0,0,0-4.12,1.44H528.8v0.36l0.46,0.35q-1.37,0-3.65,2.32h-1.37l0.46,0.89h-0.46l-0.92-.17v0.18a1,1,0,0,1,.46.53q-1.94,1.78-6.4,1.8,0-.27-1.38-0.53,0.79-3.2,3.65-3.21l-0.46-.35v-0.18a6.59,6.59,0,0,1,3.2-1.26l-0.46-.35q2.63-.63,6.4-4.29a18.5,18.5,0,0,0,6.85-4.47,3.16,3.16,0,0,1,2.29-.9,1,1,0,0,1-.46-0.53,16.77,16.77,0,0,1,3.2-2.14l-0.46-.35a89.41,89.41,0,0,0,8.23-4.12h0.46l-0.46-.35a16.25,16.25,0,0,0,3.2-1.61l10.52-3.77a41,41,0,0,1,4.12-.37h1.83q8.7,1,8.71,2.1l2.76,4.61c0,0.12-.15.18-0.46,0.18q1.85,4.75,1.85,6.39v0.71a0.78,0.78,0,0,1,0,1.42l0.46,0.35c0,0.12-.15.18-0.46,0.18l0.46,1.24v2.31c0,0.12-.15.18-0.46,0.18l0.46,0.35c0,0.12-.15.18-0.46,0.18a2,2,0,0,1,.92,1.06,16.77,16.77,0,0,0-.45,3.2l0.46,0.89a2.61,2.61,0,0,0-.45,1.42v0.18l0.46,0.89q-0.46,0-.46.18,0.91,0,.92.35,0,0.75-3.2,1.43a11.85,11.85,0,0,0-2.75-.35h-0.92Q574.84,201.22,570,201.77Zm-3.21-1.59a0.86,0.86,0,0,0-.92-0.35v0.36h0.92Z" transform="translate(-65.19 -34.86)"/></svg>