<svg id="Layer_1" data-name="Layer 1" xmlns="http://www.w3.org/2000/svg" viewBox="0 0 1297.05 603.1"><defs><style>.cls-1{fill:#fff;}</style></defs><title>ReverieLogoWhite</title><path class="cls-1" d="M4397.29,5349a13.23,13.23,0,0,0,.44,2.58q0.44,1.86,1.17,4.24l1.49,4.92q0.77,2.54,1.49,4.68t1.17,3.51a12.08,12.08,0,0,0,.44,1.29h0.32l11.22-17.59a8.43,8.43,0,0,0,1.69-4.28q0-1.94-4.6-2.26l-0.16-.32,0.89-3q1.78,0.24,3.11.36t2.79,0.2q1.45,0.08,2.5.08t2.34,0q1.21,0,2.34-.12l2.5-.16,0.24,0.48-0.89,2.82a16.51,16.51,0,0,0-3.39,1,8,8,0,0,0-2.42,1.69,21.2,21.2,0,0,0-2.42,3q-1.29,1.9-3.23,4.8L4406.9,5371a11.63,11.63,0,0,0-1.29,2.3,15,15,0,0,0-.81,2.83q-0.32,1.65-.65,4t-0.81,5.73a9.92,9.92,0,0,0,.08,4.36q0.49,1.21,2.58,1.21h1.25a8.8,8.8,0,0,0,1.25-.08l1.29-.16,0.16,0.32-1.13,3.47q-1.78,0-3.55-.08-1.53-.08-3.19-0.12t-2.87,0a29.31,29.31,0,0,0-3,.16q-1.58.16-2.87,0.32l-2.91.48,0.89-3.47a19.67,19.67,0,0,0,3.39-1.05,4.76,4.76,0,0,0,2-1.57,7.1,7.1,0,0,0,1.09-2.5,29.66,29.66,0,0,0,.61-3.75l0.4-3.63a24,24,0,0,0,.08-4.36,20.93,20.93,0,0,0-1.21-4.92l-5.08-14.69q-0.89-2.5-1.49-4.24a10.66,10.66,0,0,0-1.41-2.82,4.79,4.79,0,0,0-2.14-1.61,14.26,14.26,0,0,0-3.59-.77l-0.16-.32,0.89-2.91,2.83,0.16q1.21,0.08,2.66.12t2.82,0q1.61,0,3.59-.08t3.59-.24q1.94-.16,3.87-0.4l0.16,0.56-0.65,2.66a29.1,29.1,0,0,0-3.23.4,7.14,7.14,0,0,0-1.9.6,2.06,2.06,0,0,0-.93.85A2.69,2.69,0,0,0,4397.29,5349Z" transform="translate(-3656.93 -4904.53)"/><path class="cls-1" d="M4449.83,5389.89a1.42,1.42,0,0,0,.65-0.16,8.85,8.85,0,0,0,1-.64q0.69-.49,1.78-1.41l2.95-2.54,1,0.08,1,1.94q-4.92,4.68-7.47,6.62t-3.83,1.94q-2.91,0-2.91-2.34a12.2,12.2,0,0,1,.12-1.25q0.12-.93.36-2.18t0.57-2.74q0.32-1.49.64-2.95l1.78-7.67-0.48-.16a83.12,83.12,0,0,1-7.59,11.95,36.91,36.91,0,0,1-7.51,7.34,5.27,5.27,0,0,1-4.76-2.87q-1.7-2.86-1.69-8.11a31.08,31.08,0,0,1,1.61-9.81,34.51,34.51,0,0,1,4.24-8.72,24.8,24.8,0,0,1,5.93-6.21,11.4,11.4,0,0,1,6.7-2.38l8.07,1.29,0.73-2,0.4-.08,2.5,1.21,0.65,1q-1.37,4.68-2.58,9.68-1.13,4.36-2.22,9.81t-1.9,11.1Zm-16.38-.73q1.13,0,2.95-1.94a41,41,0,0,0,4-5.29q2.22-3.35,4.6-7.79t4.56-9.52a20.41,20.41,0,0,0-4.28-1.94,13,13,0,0,0-3.87-.73,5.84,5.84,0,0,0-3.79,1.57,14.85,14.85,0,0,0-3.31,4.2,25.88,25.88,0,0,0-2.34,6,27.55,27.55,0,0,0-.89,7,22.19,22.19,0,0,0,.69,6Q4432.48,5389.17,4433.45,5389.17Z" transform="translate(-3656.93 -4904.53)"/><path class="cls-1" d="M4467.42,5381.26l0.81-5.16q0.4-2.58.73-4.76t0.52-3.75a20.66,20.66,0,0,0,.2-2.22,3.94,3.94,0,0,0-.77-2.74,3.66,3.66,0,0,0-2.7-.81h-3.31l0.56-3.07q1.85,0,4.12,0t4.28-.2q2.34-.08,4.68-0.24l0.73,1q-0.81,2.59-1.61,5.33-0.65,2.34-1.41,5.37t-1.33,6l0.32,0.08a71,71,0,0,1,3.67-7.14,52.13,52.13,0,0,1,4-5.85,24.55,24.55,0,0,1,3.79-4,5.43,5.43,0,0,1,3.19-1.45,7,7,0,0,1,2.34,5.57,7.68,7.68,0,0,1-.12,1.33q-0.12.69-.28,1.49l-0.65.24-0.65-.16-0.73-.16a4.59,4.59,0,0,0-.89-0.08,6.5,6.5,0,0,0-3.63,1.33,18.56,18.56,0,0,0-3.87,3.75,39.29,39.29,0,0,0-3.79,5.85,71.86,71.86,0,0,0-3.55,7.71l-1.21,9.12a1.05,1.05,0,0,1-.6.48,14.14,14.14,0,0,1-1.41.65,11.87,11.87,0,0,1-1.65.52,6.22,6.22,0,0,1-1.33.2l-0.57-.73Q4466.46,5387.39,4467.42,5381.26Z" transform="translate(-3656.93 -4904.53)"/><path class="cls-1" d="M4516.65,5389.89a1.42,1.42,0,0,0,.65-0.16,8.85,8.85,0,0,0,1-.64q0.69-.49,1.78-1.41l2.95-2.54,1,0.08,1,1.94q-8.55,8.55-11.3,8.55-2.5,0-2.5-2.34a20.65,20.65,0,0,1,1-5.24q1-3.39,2.1-7.14t2.1-7.26a22.33,22.33,0,0,0,1-5.61,3.61,3.61,0,0,0-.77-2.38,2.45,2.45,0,0,0-2-.93,4.72,4.72,0,0,0-3,1.61,28.23,28.23,0,0,0-3.67,4.52,69.08,69.08,0,0,0-4.12,7q-2.14,4.12-4.24,9l-0.89,6.62a1.05,1.05,0,0,1-.6.48,14.14,14.14,0,0,1-1.41.65,11.87,11.87,0,0,1-1.65.52,6.22,6.22,0,0,1-1.33.2l-0.57-.73q1.21-7.67,2.18-13.88,0.4-2.66.81-5.29t0.73-4.8q0.32-2.18.52-3.71a20.27,20.27,0,0,0,.2-2,3.27,3.27,0,0,0-.81-2.46,3.8,3.8,0,0,0-2.66-.77h-3.31l0.56-3.07q1.85,0,4.12,0t4.28-.2q2.34-.08,4.68-0.24l0.73,1q-1,2.83-1.86,6.05-0.81,2.74-1.65,6.17t-1.41,7l0.4,0.24a90,90,0,0,1,8.39-13.72q4.19-5.49,8-7.67a5.39,5.39,0,0,1,4.36,2.22,8.58,8.58,0,0,1,1.78,5.53,20.94,20.94,0,0,1-.85,5.25q-0.85,3.15-2,6.58t-2.26,6.82q-1.13,3.39-1.69,5.89Z" transform="translate(-3656.93 -4904.53)"/><path class="cls-1" d="M4531.34,5388.85a16.88,16.88,0,0,1,2.06-1.37,5.15,5.15,0,0,1,2.62-.73,3.55,3.55,0,0,1,2.91,1.61,7.71,7.71,0,0,1,1.21,4.68,9.74,9.74,0,0,1-1.09,4.48,19,19,0,0,1-2.74,4,24.35,24.35,0,0,1-3.67,3.35,44.74,44.74,0,0,1-3.79,2.54l-1.45-1.21v-0.81a17,17,0,0,0,4.56-4.52,9.3,9.3,0,0,0,1.82-5.24,6.9,6.9,0,0,0-.77-3.19,8.8,8.8,0,0,0-1.82-2.46Z" transform="translate(-3656.93 -4904.53)"/><path class="cls-1" d="M4585.49,5395.71l-4.44-.48-3.87-.32q-2-.16-3.47-0.16a29.36,29.36,0,0,0-3,.16l-2.95.32-3.07.48,0.89-3.47q3.71-.73,5.16-2.14t1.86-4.8l4.2-34.3a7,7,0,0,0-.12-3.47,2.17,2.17,0,0,0-2.14-.89c-0.27,0-.56,0-0.89,0s-0.62,0-.89,0a6,6,0,0,1-1,.08l-0.08-.32,0.89-3.31,2.91,0.16q1.21,0.08,2.62.08h2.54q1.37,0,3.19,0t3.59-.12l4.2-.16a28.19,28.19,0,0,1,9.48,1.53,21.71,21.71,0,0,1,7.43,4.36,19.94,19.94,0,0,1,4.84,6.74,21.19,21.19,0,0,1,1.73,8.68,31.4,31.4,0,0,1-2.34,12.06,32.3,32.3,0,0,1-6.38,10,30.43,30.43,0,0,1-9.44,6.78A27,27,0,0,1,4585.49,5395.71Zm1-49.07a4.94,4.94,0,0,0-2.18.32,1.87,1.87,0,0,0-.73,1.45q-2.66,16.79-4.2,26.15a106.27,106.27,0,0,0-1.53,11.54,7.76,7.76,0,0,0,.44,2.83,3.7,3.7,0,0,0,1.53,1.82,7.15,7.15,0,0,0,2.87.93,32.89,32.89,0,0,0,4.36.24,19.63,19.63,0,0,0,8.68-1.9,19.43,19.43,0,0,0,6.7-5.33,24.42,24.42,0,0,0,4.28-8.19,35,35,0,0,0,1.49-10.49q0-9.28-5.53-14.32T4586.46,5346.64Z" transform="translate(-3656.93 -4904.53)"/><path class="cls-1" d="M4644.33,5363.58a10.57,10.57,0,0,1-1,4.72,12.38,12.38,0,0,1-3.35,4,28.6,28.6,0,0,1-6,3.63,77.28,77.28,0,0,1-8.84,3.43,16.34,16.34,0,0,0,1.25,8.31q1.58,3.15,4.4,3.15a7.84,7.84,0,0,0,4.84-1.9,14.94,14.94,0,0,0,4-5l1.13,0.08,1.21,1.94a22,22,0,0,1-5.93,7,11.68,11.68,0,0,1-7.06,2.74,7.94,7.94,0,0,1-6.86-3.55q-2.5-3.55-2.5-9.76a27.46,27.46,0,0,1,1.57-9.16,30.33,30.33,0,0,1,4.2-8,23.72,23.72,0,0,1,5.89-5.73,11.88,11.88,0,0,1,6.66-2.18,6.49,6.49,0,0,1,4.72,1.61A6.25,6.25,0,0,1,4644.33,5363.58Zm-9-1.61a5.43,5.43,0,0,0-3.19,1.13,12.6,12.6,0,0,0-2.91,3,21.52,21.52,0,0,0-2.34,4.44,26.5,26.5,0,0,0-1.49,5.45q7-2.18,10.09-4.6a7.14,7.14,0,0,0,3.07-5.73Q4638.6,5362,4635.37,5362Z" transform="translate(-3656.93 -4904.53)"/><path class="cls-1" d="M4664.34,5362.05a5.78,5.78,0,0,0-3.75,1.53,14.58,14.58,0,0,0-3.23,4,24,24,0,0,0-2.26,5.73,26,26,0,0,0-.85,6.62,17.93,17.93,0,0,0,1.49,8q1.49,2.95,4.08,2.95a7.82,7.82,0,0,0,4.88-2,14.09,14.09,0,0,0,3.91-5l1.13,0.08,1.21,1.94a22,22,0,0,1-5.93,7,11.68,11.68,0,0,1-7.06,2.74,7.94,7.94,0,0,1-6.86-3.55q-2.5-3.55-2.5-9.76a28,28,0,0,1,1.57-9.28,30.94,30.94,0,0,1,4.12-8,22.24,22.24,0,0,1,5.81-5.65,12.16,12.16,0,0,1,6.74-2.14,16.5,16.5,0,0,1,3.91.44,8.56,8.56,0,0,1,2.95,1.25l0.4,0.89-2.74,5.41-1.13.24Q4667.73,5362.05,4664.34,5362.05Z" transform="translate(-3656.93 -4904.53)"/><path class="cls-1" d="M4685.4,5395.71a7.63,7.63,0,0,1-6.54-3.59q-2.5-3.59-2.5-9.64a30.23,30.23,0,0,1,1.49-9.48,29.69,29.69,0,0,1,4-8.07,20.1,20.1,0,0,1,5.85-5.57,13.14,13.14,0,0,1,7-2.06,8.09,8.09,0,0,1,6.74,3.15q2.46,3.15,2.46,8.88a34.79,34.79,0,0,1-1.45,10.13,28.84,28.84,0,0,1-4,8.39,21.22,21.22,0,0,1-5.89,5.73A13,13,0,0,1,4685.4,5395.71Zm3.23-4.44a5.87,5.87,0,0,0,3.71-1.33,11,11,0,0,0,2.91-3.67,22.12,22.12,0,0,0,1.9-5.53,33.22,33.22,0,0,0,.69-7,17.56,17.56,0,0,0-1.73-8.51,5.32,5.32,0,0,0-4.8-3.11,6,6,0,0,0-3.63,1.25,10.53,10.53,0,0,0-2.91,3.43,19.7,19.7,0,0,0-1.9,5.16,28.83,28.83,0,0,0-.69,6.46,26.16,26.16,0,0,0,.48,5.2,16.54,16.54,0,0,0,1.33,4.08,7.6,7.6,0,0,0,2,2.62A4.11,4.11,0,0,0,4688.63,5391.27Z" transform="translate(-3656.93 -4904.53)"/><path class="cls-1" d="M4713.73,5381.26l0.81-5.16q0.4-2.58.73-4.76t0.52-3.75a20.66,20.66,0,0,0,.2-2.22,3.94,3.94,0,0,0-.77-2.74,3.66,3.66,0,0,0-2.7-.81h-3.31l0.56-3.07q1.85,0,4.12,0t4.28-.2q2.34-.08,4.68-0.24l0.73,1q-0.81,2.59-1.61,5.33-0.65,2.34-1.41,5.37t-1.33,6l0.32,0.08a71,71,0,0,1,3.67-7.14,52.13,52.13,0,0,1,4-5.85,24.55,24.55,0,0,1,3.79-4,5.43,5.43,0,0,1,3.19-1.45,7,7,0,0,1,2.34,5.57,7.68,7.68,0,0,1-.12,1.33q-0.12.69-.28,1.49l-0.65.24-0.65-.16-0.73-.16a4.59,4.59,0,0,0-.89-0.08,6.5,6.5,0,0,0-3.63,1.33,18.56,18.56,0,0,0-3.87,3.75,39.29,39.29,0,0,0-3.79,5.85,71.86,71.86,0,0,0-3.55,7.71l-1.21,9.12a1.05,1.05,0,0,1-.6.48,14.14,14.14,0,0,1-1.41.65,11.87,11.87,0,0,1-1.65.52,6.22,6.22,0,0,1-1.33.2l-0.57-.73Q4712.76,5387.39,4713.73,5381.26Z" transform="translate(-3656.93 -4904.53)"/><path class="cls-1" d="M4763.85,5356.08a9.87,9.87,0,0,0,.77,4,9,9,0,0,0,2.22,3.11,10.22,10.22,0,0,0,3.43,2.06,12.67,12.67,0,0,0,4.4.73l21.06-1.37a10.27,10.27,0,0,0,4-1,12.37,12.37,0,0,0,3.43-2.74l1.45,0.81-2.26,4.52a5.94,5.94,0,0,1-2.18,2.62,7.33,7.33,0,0,1-3.55.69h-7.91l-0.4.65a9.24,9.24,0,0,1,1.45,2.87,11.57,11.57,0,0,1,.56,3.59,16.47,16.47,0,0,1-1.73,7.38,20,20,0,0,1-4.68,6.13,22.84,22.84,0,0,1-15.13,5.69,19.42,19.42,0,0,1-5.93-.89,15.23,15.23,0,0,1-4.84-2.5,11.83,11.83,0,0,1-3.23-3.83,10.13,10.13,0,0,1-1.17-4.8,12.9,12.9,0,0,1,3.55-8.92,20.9,20.9,0,0,1,9.52-5.77,13.88,13.88,0,0,1-6.34-4.64,11.35,11.35,0,0,1-2.22-6.9,12.64,12.64,0,0,1,1.45-5.93,15.29,15.29,0,0,1,3.92-4.8,19.11,19.11,0,0,1,5.73-3.19,20.34,20.34,0,0,1,6.9-1.17,40.47,40.47,0,0,1,6.13.52,42.41,42.41,0,0,1,6.21,1.41l0.16,0.32q-0.48,1.21-.93,2.66t-0.89,3q-0.44,1.58-.81,3.15t-0.61,2.95l-3.71.32,0.32-1.61q0.16-.64.28-1.37a7.86,7.86,0,0,0,.12-1.29,5,5,0,0,0-1.9-4.16,9,9,0,0,0-5.61-1.49q-5.17,0-8.11,2.46A8.4,8.4,0,0,0,4763.85,5356.08Zm21.71,21.47a10.4,10.4,0,0,0-1.53-5.81,4.58,4.58,0,0,0-4-2.34h-9.36a48.37,48.37,0,0,0-5.16,2.79,16.64,16.64,0,0,0-3.39,2.74,8.42,8.42,0,0,0-1.82,2.95,10.39,10.39,0,0,0-.53,3.39,9.23,9.23,0,0,0,.81,3.87,9.68,9.68,0,0,0,5.61,5.17,12.43,12.43,0,0,0,4.32.73,16.89,16.89,0,0,0,5.89-1,14.9,14.9,0,0,0,4.76-2.78,13,13,0,0,0,3.19-4.24A12.53,12.53,0,0,0,4785.56,5377.55Z" transform="translate(-3656.93 -4904.53)"/><path class="cls-1" d="M4835.83,5395.71a23.85,23.85,0,0,1-8.63-1.49,18.9,18.9,0,0,1-6.66-4.28,19.21,19.21,0,0,1-4.32-6.74,24.36,24.36,0,0,1-1.53-8.88,33.88,33.88,0,0,1,2.3-12.59,31.77,31.77,0,0,1,6.34-10.13,28.88,28.88,0,0,1,21.39-9.16,43.32,43.32,0,0,1,4.84.28q2.5,0.28,4.52.69,2.34,0.4,4.6.89l0.24,0.48q-0.65,1.78-1.29,3.87-0.57,1.86-1.21,4.24t-1.13,5.12l-3.47.32,0.32-1.78q0.16-.73.28-1.53a9.93,9.93,0,0,0,.12-1.45q0-6.78-10.57-6.78a18.3,18.3,0,0,0-8.15,1.82,19,19,0,0,0-6.42,5.13,24,24,0,0,0-4.2,7.95,33.48,33.48,0,0,0-1.49,10.29,30.23,30.23,0,0,0,1,8.23,18.94,18.94,0,0,0,3,6.34,13.52,13.52,0,0,0,11.26,5.53,20.23,20.23,0,0,0,4.36-.44,18.15,18.15,0,0,0,3.47-1.09,20.46,20.46,0,0,0,3.07-1.61l1.21-10.17q0.32-2.74-.4-3.55t-3.39-.81h-5.41l-0.08-.32,1.13-3.79,3.11,0.16q1.41,0.08,3.19.12t3.47,0q1.21,0,2.42,0c0.81,0,1.53-.07,2.18-0.12s1.45-.13,2.1-0.24l0.08,1.61q-2.42,1.62-3.23,7.18-0.16,1.13-.36,2.58t-0.36,2.86q-0.16,1.41-.28,2.62t-0.12,1.78v1.45a7.12,7.12,0,0,0,.08,1l-0.48.64a40.7,40.7,0,0,1-4.84,1.94,43,43,0,0,1-5.37,1.29A37.84,37.84,0,0,1,4835.83,5395.71Z" transform="translate(-3656.93 -4904.53)"/><path class="cls-1" d="M4873.44,5389.89a1.68,1.68,0,0,0,.69-0.16,5.85,5.85,0,0,0,1.05-.69q0.68-.52,1.82-1.45t2.83-2.46l1,0.08,1,1.94a73.93,73.93,0,0,1-7.06,6.38q-2.87,2.18-4.24,2.18a2.19,2.19,0,0,1-1.9-.73,3.54,3.54,0,0,1-.53-2.1q1.13-7,2-12.75,0.4-2.42.77-4.88t0.69-4.52q0.32-2.06.48-3.51t0.16-2a2.84,2.84,0,0,0-3.39-3.39h-3.31l0.56-3.07q1.85,0,4.12,0t4.28-.2q2.34-.08,4.68-0.24l0.73,1q-1.37,4.52-2.58,9.52-1.13,4.36-2.22,9.76t-1.9,11.06Zm3.63-42.93a3,3,0,0,1-2.54-1.09,3.91,3.91,0,0,1-.85-2.46,5.39,5.39,0,0,1,1.45-3.71,4.77,4.77,0,0,1,3.71-1.61,2.93,2.93,0,0,1,2.46,1.09,3.91,3.91,0,0,1,.85,2.46,5.38,5.38,0,0,1-1.45,3.71A4.68,4.68,0,0,1,4877.07,5347Z" transform="translate(-3656.93 -4904.53)"/><path class="cls-1" d="M4886.76,5361.65l0.32-2.34,6.38-1,0.73-6.46a22.28,22.28,0,0,1,2-6.82,19.36,19.36,0,0,1,3.75-5.37,17,17,0,0,1,5.16-3.55,15,15,0,0,1,6.13-1.29,30.85,30.85,0,0,1,4.36.32,18.82,18.82,0,0,1,3.79.89l0.32,0.89-2.5,5.08-1.53.24a16.26,16.26,0,0,0-8-2.66q-6.46,0-7.51,9.2l-1.21,9.93h18.16l0.32,0.24-0.56,3.07h-17.51l-0.81.48-4.2,38.25q-0.73,6.46-4,10a11.13,11.13,0,0,1-8.47,3.51,10.07,10.07,0,0,1-4.64-1.05,4.93,4.93,0,0,1-2.62-2.66,15.33,15.33,0,0,1,.48-1.65q0.32-.93.73-1.86t0.81-1.82q0.41-.89.73-1.45h1.13a6.91,6.91,0,0,0,1.49,4.88,5.23,5.23,0,0,0,4.16,1.82,5,5,0,0,0,3.75-1.82,8.42,8.42,0,0,0,2.06-4.56q0.49-4,.61-7.3t0.36-6.66l2.26-27.44-0.57-.4-5.57-.24Z" transform="translate(-3656.93 -4904.53)"/><path class="cls-1" d="M4925.33,5384.41l1,1.94q-1.7,1.94-3.47,3.63a43.72,43.72,0,0,1-3.39,2.95,24.32,24.32,0,0,1-3,2,5,5,0,0,1-2.34.77,4.71,4.71,0,0,1-3.71-1.45,4.76,4.76,0,0,1-1-4l4.44-27.68-0.4-.32-5.57-.24-0.24-.4,0.32-2.34,6.46-1.05q0.24-1.69.48-3.43t0.4-3.11q0.24-1.61.4-3.15l7.26-2.82,0.48,1q-0.48,1.61-1,3.55-0.48,1.62-1,3.75t-1.13,4.48l9.85-.08,0.32,0.24-0.65,3.23-9.52-.08-0.89.48-4.92,24.78q-0.4,2.83,1.86,2.83a5.55,5.55,0,0,0,2.91-1.25,55.37,55.37,0,0,0,5.08-4.32Z" transform="translate(-3656.93 -4904.53)"/><path class="cls-1" d="M4932.35,5383.6q0,4.12,2,6.25a7.47,7.47,0,0,0,5.77,2.14,5.67,5.67,0,0,0,4-1.53,4.79,4.79,0,0,0,1.65-3.63,5.75,5.75,0,0,0-1.49-3.83,32,32,0,0,0-3.59-3.51q-1.37-1.13-2.7-2.34a24,24,0,0,1-2.42-2.54,13,13,0,0,1-1.78-2.83,7.52,7.52,0,0,1-.69-3.19,9.68,9.68,0,0,1,1-4.32,11.48,11.48,0,0,1,2.74-3.59,13.89,13.89,0,0,1,4-2.46,12.75,12.75,0,0,1,4.8-.93,13.82,13.82,0,0,1,5,.85,7.22,7.22,0,0,1,3.35,2.38,33.86,33.86,0,0,1-1.33,3.31q-0.85,1.86-1.41,3h-1.13a8.7,8.7,0,0,0-2.74-4.16,6.64,6.64,0,0,0-4.28-1.49,4.6,4.6,0,0,0-3.27,1.25,4.09,4.09,0,0,0-1.33,3.11,5.17,5.17,0,0,0,.65,2.54,10.3,10.3,0,0,0,1.78,2.3,36.48,36.48,0,0,0,3.11,2.91q1.73,1.45,3.31,3a17.59,17.59,0,0,1,2.66,3.39,7.62,7.62,0,0,1,1.09,4,10,10,0,0,1-1.09,4.52A12.72,12.72,0,0,1,4947,5392a15.1,15.1,0,0,1-4.28,2.66,12.9,12.9,0,0,1-5,1,14.49,14.49,0,0,1-6.25-1.21,5.55,5.55,0,0,1-3.19-3.31q0.24-.89.61-2t0.77-2.14q0.4-1,.81-2a16.12,16.12,0,0,1,.73-1.49h1.13Z" transform="translate(-3656.93 -4904.53)"/><path class="cls-1" d="M4004.1,4904.53h1.11a1,1,0,0,1,1.11,1.11l2.22-1.11a1,1,0,0,1,1.11,1.11l2.23-1.11h2.22a243.62,243.62,0,0,1,41.17,3.34,8.57,8.57,0,0,1,3.34-1.11q0,2.23,11.13,3.34L4072,4909q7.78,0.56,7.79,4.45h8.9q4.45,1.95,4.45,4.45l3.34-2.23q2.22,0,8.9,3.34a8.58,8.58,0,0,1,3.34-1.11l16.69,13.35-1.11,2.23q4.73,0,8.9,6.68,2.78,2.23,4.45,2.22v1.11h-2.23q0,0.56,10,8.9l-1.11,2.23v1.11q5,0,7.79,11.13a8.62,8.62,0,0,1,3.34,1.11l-1.11,4.45q0,1.95,2.23,6.68a1,1,0,0,0-1.11,1.11q1.67,0,3.34,3.34v2.22a1,1,0,0,1-1.11,1.11q0,0.83,3.34,8.9l-1.11,5.56a56.65,56.65,0,0,1,1.11,8.9l2.23-1.11,1.11,2.22a2,2,0,0,1-2.22,2.22v-2.22q-2.5,0-3.34,5.56,4.45,1.67,4.45,3.34v1.11l-3.34,6.68c1.48,0,2.23.37,2.23,1.11a8.55,8.55,0,0,0-1.11,3.34h1.11l-2.23,5.56q2.22,0.28,2.23,2.22c0,1.49-1.11,2.23-3.34,2.23l1.11,5.56c-1.49.19-2.23,0.93-2.23,2.22l1.11,5.56q-3.34,0-6.68,5.56v1.11l1.11,2.23q-2.23.28-2.23,2.22a1,1,0,0,1,1.11,1.11,1,1,0,0,0-1.11,1.11q2.22,0.28,2.23,2.22a14.79,14.79,0,0,1-3.34,8.9h-1.11v5.56l-5.56,6.68h2.22v1.11q-2.23,2.5-5.56,11.13l1.11,2.22q-2.5,2.5-10,18.92-1.39,0-8.9,14.47-1.4,0-11.13,16.69-1.67,0-11.13,13.35,0,7.24-8.9,11.13,0,1.67-6.68,5.56,0,1.95-6.68,5.56,0,3.06-7.79,8.9,0,5.57-6.68,5.56l-6.68,7.79a8.62,8.62,0,0,0-3.34-1.11l1.11,2.22-4.45,3.34-2.23-1.11q0,4.45-2.23,4.45l-2.23-1.11q0,6.12-18.92,14.47,10,34.78,18.92,46.74a31.91,31.91,0,0,1,6.68,16.69q2.5,0,18.92,24.48a219.29,219.29,0,0,0,30,31.16q26.43,30.6,49,47.85,30.6,21.7,36.72,28.93,1.94,0,8.9,5.56,3.06,0,11.13,5.56,25.31,13.91,37.83,17.8V5462l5.56-1.11-1.11,2.23v1.11h1.11V5462q10,1.39,10,3.34a1,1,0,0,0,1.11-1.11q17.8,1.67,17.8,3.34l5.56-1.11h11.13a1,1,0,0,1,1.11,1.11q5.56-3.34,7.79-3.34v1.11q30.32-6.68,37.83-20,4.45-5.84,7.79-21.14h2.23a2,2,0,0,0-2.23-2.22q0.84-6.68,2.23-6.68l-1.11-2.23v-3.34a1,1,0,0,1,1.11-1.11l-1.11-2.23a1,1,0,0,1,1.11-1.11q0-28.66-22.26-69-13.08-13.35-37.83-13.35h-3.34q-25.32,0-36.72,14.47l-7.79,10,1.11,2.23q-3.06,9.73-5.56,10a12.94,12.94,0,0,1,2.23,6.68,1,1,0,0,1-1.11,1.11l1.11,2.22-1.11,5.56q1.39,0,6.68,17.8,9.45,12.24,27.82,12.24c0,0.74,1.11,1.11,3.34,1.11q2.5,0,13.35-3.34a1,1,0,0,0,1.11,1.11l10-8.9-2.22-3.34-2.23,1.11h-1.11a25.13,25.13,0,0,1-14.47-15.58v-1.11h1.11a8.55,8.55,0,0,1-1.11-3.34q0.55-5.29,12.24-10,17.8,0,24.48,20,0,18.63-14.47,26.71-5.84,6.68-12.24,6.68a1,1,0,0,0-1.11-1.11q0,3.34-15.58,4.45a1,1,0,0,0-1.11-1.11,2,2,0,0,1-2.23,2.23q-7.51-.56-15.58-6.68-26.71-15-26.71-49,1.11-6.68,2.23-6.68l-1.11-2.22,2.23-3.34a8.83,8.83,0,0,0-1.11-4.45,55.88,55.88,0,0,1,17.8-24.48q22-8.07,22.25-10a8.56,8.56,0,0,1,3.34,1.11q11.12-2.23,13.35-2.22a8.57,8.57,0,0,0,3.34,1.11l5.56-2.22,6.68,3.34h2.23l5.56-1.11,1.11,2.23a1,1,0,0,0,1.11-1.11q8.9,0,17.8,7.79,8.35,3.06,21.14,26.71v4.45l-1.11,2.22q1.67,0,3.34,3.34a1,1,0,0,0-1.11,1.11q2.78,0,7.79,22.25c-1.49.18-2.23,0.93-2.23,2.22,2.23,0,3.34.74,3.34,2.23l-1.11,4.45,2.22,8.9-3.34,2.23a37.81,37.81,0,0,0,3.34,8.9v1.11q0,2.22-3.34,2.23l1.11,2.22v7.79h-1.11l-2.22-1.11v1.11a1,1,0,0,0,1.11,1.11q-4.17,20-21.14,44.51-5,8.9-27.82,22.25,0,0.84-12.24,5.56v-1.11q-17.81,6.68-23.37,6.68h-1.11a1,1,0,0,1-1.11-1.11q-4.17,3.34-15.58,4.45a34.36,34.36,0,0,0-8.9-1.11l-5.56,1.11a8.54,8.54,0,0,0-3.34-1.11,8.61,8.61,0,0,1-3.34,1.11q-3.34-1.12-3.34-2.23a1,1,0,0,0-1.11,1.11q-31.71-6.4-42.28-13.35l-2.22,1.11q-20.86-7.24-38.95-25.59-16.69-13.08-16.69-14.47V5452q3.34,0,3.34,4.45h2.23L4112,5424.18v1.11a8.58,8.58,0,0,1,1.11,3.34h-2.23q0-1.67-10-15.58a1,1,0,0,1,1.11-1.11h1.11v-2.22a10,10,0,0,1-10-6.68v-1.11h3.34a8.54,8.54,0,0,1-1.11-3.34l-2.23,1.11H4092q-2.23,0-6.68-11.13a1,1,0,0,0,1.11-1.11q-3.62,0-14.47-25.59-35.89-59.53-60.09-116.84l-2.23-1.11q-0.28,2.78-21.14,11.13l-2.23-1.11q-4.45,3.34-31.16,10a8.62,8.62,0,0,0-3.34-1.11q0,2.23-8.9,3.34v1.11l-5.56-1.11h-2.22a8.83,8.83,0,0,0-4.45,1.11l-2.23-1.11q-8.35,1.11-11.13,3.34a8.51,8.51,0,0,1-1.11-3.34l-3.34,2.22h-1.11a1,1,0,0,1-1.11-1.11,8.81,8.81,0,0,1-4.45,1.11l1.11,2.22v1.11a1,1,0,0,1-1.11,1.11l1.11,2.22q-3.34,3.62-3.34,5.56a8.62,8.62,0,0,1,1.11,3.34q-3.34,2.5-11.13,25.59-11.13,22.53-11.13,24.48-15.58,23.64-15.58,30-2.23,0-2.23-3.34h-1.11q0,1.67-2.23,4.45v1.11l3.34-2.23h1.11v1.11l-8.9,10a1,1,0,0,1,1.11,1.11q-3.34,1.39-10,15.58-5.29,0-6.68,4.45a1,1,0,0,1,1.11,1.11q-4.45,1.39-4.45,6.68l-2.23-1.11H3835q0,1.94-4.45,7.79,0,5-16.69,15.58v1.11h-1.11l-2.23-1.11q0,4.45-6.68,5.56v-1.11a141,141,0,0,1-26.71,14.46,1,1,0,0,0-1.11-1.11q0,1.67-3.34,3.34h-1.11l-2.23-1.11q0,3.34-2.23,3.34h-2.23l-2.22-1.11q-0.56,3.34-8.9,3.34l-5.56-1.11q0,2.22-3.34,2.23a8.56,8.56,0,0,1-3.34-1.11,32.8,32.8,0,0,1-7.79,1.11l-4.45-1.11-2.22,1.11a8.54,8.54,0,0,0-3.34-1.11,1,1,0,0,1-1.11,1.11q0-1.67-16.69-4.45l-17.8-10q-30-22.81-30-38.95v-2.22a1,1,0,0,1,1.11-1.11q-2.22-4.45-2.23-12.24v-2.22a12.94,12.94,0,0,1,2.23-6.68,1,1,0,0,1-1.11-1.11l2.23-1.11-1.11-4.45q0-6.12,5.56-18.92a1,1,0,0,1-1.11-1.11q3.06,0,10-20,1.11,0,2.23-3.34a1,1,0,0,1-1.11-1.11q1.67,0,3.34-4.45l2.23,1.11h1.11v-1.11h-2.23v-2.22h2.23l-1.11-2.23q2.78-2.23,4.45-2.22l-1.11-2.22q6.12-7.24,10-8.9h1.11l2.23,1.11q0-1.67,3.34-4.45a1,1,0,0,1-1.11-1.11q6.4-4.45,8.9-4.45V5294q10.29-7.79,34.49-7.79a8.58,8.58,0,0,0,3.34,1.11c0.18-1.49.93-2.22,2.22-2.22q1.94,1.94,13.35,3.34,0,1.67,3.34,3.34a1,1,0,0,1,1.11-1.11q4.17,3.61,10,12.24h1.11q0,4.45,2.23,14.47,0,14.74-20,25.59a1,1,0,0,1-1.11-1.11q-4.45,2.22-6.68,2.23l-2.23-1.11a32.86,32.86,0,0,1-7.79,1.11q-13.35-2.5-18.92-10l1.11-2.22q-3.34,0-3.34-5.56l1.11-2.23a8.54,8.54,0,0,1-1.11-3.34q2.5,0,10-8.9l5.56-1.11h6.68q6.68,3.89,6.68,10v4.45l-2.23,3.34q2.22,0,2.23,3.34h5.56q8.9,0,16.69-13.35-4.73-24.48-23.37-24.48h-4.45q-33.11,0-59,36.72-7.51,12.24-14.47,34.5h-1.11l1.11,2.22-3.34,5.56v1.11l2.22,3.34v1.11a1,1,0,0,1-1.11,1.11l1.11,2.23V5383h-2.22q5,14.46,8.9,14.47-0.56,5.56-3.34,5.56v1.11h1.11a2.49,2.49,0,0,1,4.45,2.22,8.5,8.5,0,0,0-1.11,3.34q7.78,4.73,7.79,13.35H3687V5422a8.55,8.55,0,0,1-1.11-3.34l2.22-1.11q2.22,0.27,2.23,2.23v3.34q7.78,7.78,11.13,7.79l-1.11,2.22a8.58,8.58,0,0,1,1.11,3.34l3.34-2.23a8.58,8.58,0,0,0,3.34,1.11,2.49,2.49,0,1,1,4.45,2.23,8.85,8.85,0,0,0,4.45-1.11,21,21,0,0,0,10,2.22q21.14,0,43.4-26.71,2.22,0,16.69-17.8,7.78-6.4,28.93-40.06l13.35-17.8a1,1,0,0,1-1.11-1.11,251.22,251.22,0,0,0,27.82-54.52q1.67-.27,11.13-20,0-1.39-7.79-8.9l-2.23,1.11q-43.4-35.33-44.51-44.51-3.34,0-8.9-17.8h1.11l-2.23-7.79,1.11-5.56-1.11-6.68h1.11l-1.11-2.22q0.27-5,4.45-10L3806,5156q1.39-6.95,5.56-10a8.5,8.5,0,0,1-1.11-3.34q6.68-4.45,6.68-10l7.79-6.68q2.22,0,2.23-6.68l2.23,1.11,1.11-2.22a8.5,8.5,0,0,1-1.11-3.34q0.83,0,7.79-7.79h1.11l2.23,1.11q0-4.45,4.45-4.45v-1.11h-2.23q0-1.94,2.23-6.68a8.78,8.78,0,0,1-1.11-4.45h2.23v-1.11h-4.45v-4.45q1.94-4.45,4.45-4.45v-1.11c-2.23,0-3.34-.74-3.34-2.23V5077q0.27-2.22,2.23-2.22l-1.11-5.56v-1.11l2.23,1.11h1.11v-1.11H3845v-2.22l1.11-2.22a1,1,0,0,1-1.11-1.11,2,2,0,0,0,2.23-2.22v-1.11a8.84,8.84,0,0,0-1.11-4.45l13.35-34.49q7.23-8.35,31.16-43.4,10.57-12.52,42.28-38.95,2.78,0,20-14.47Q3984.34,4907.88,4004.1,4904.53Zm-313.79,405v2.23h1.11v-2.23h-1.11Zm31.16,130.19v1.11h2.22v-1.11h-2.22Zm4.45,0v1.11h2.23v-1.11h-2.23Zm32.27-5.56v2.23h1.11v-2.23h-1.11Zm15.58-14.46v3.34h1.11l-1.11,2.23v1.11h1.11a2,2,0,0,1,2.23-2.23v-1.11q-2.23,0-2.23-3.34h-1.11Zm8.9-7.79v2.23h2.23A2,2,0,0,0,3782.66,5411.94Zm5.56-4.45v1.11q0,2.22,3.34,2.22l-1.11,2.22h1.11q1.67,0,3.34-4.45h-1.11l-2.23,1.11a2,2,0,0,0-2.23-2.23h-1.11Zm0,17.8v2.22h1.11v-2.22h-1.11Zm3.34-25.59-1.11,2.22,2.23,1.11,1.11-2.23Zm6.68-5.56a1,1,0,0,1-1.11,1.11,8.58,8.58,0,0,1,1.11,3.34h2.22c0-1.49,1.11-2.23,3.34-2.23v-2.22h-1.11a8.62,8.62,0,0,1-3.34,1.11A1,1,0,0,0,3798.24,5394.13Zm-1.11,13.35v1.11h2.23v-1.11h-2.23Zm3.34-1.11v1.11h2.23v-1.11h-2.23Zm0,8.9v4.45h1.11v-4.45h-1.11Zm3.34-25.59a2,2,0,0,1-2.23,2.23V5393h2.23l1.11-2.23v-1.11h-1.11Zm-1.11,10v2.22h2.23v-2.22h-2.23Zm1.11,6.68v1.11H3806v-1.11h-2.22Zm2.22-22.25a8.63,8.63,0,0,1-1.11,3.34h3.34a8.5,8.5,0,0,1,1.11-3.34H3806Zm-1.11,28.93v2.23H3806v-2.23h-1.11Zm1.11-15.58q0.27,2.22,2.23,2.22h1.11v-2.22H3806Zm4.45-18.92v1.11h2.23v-1.11h-2.23Zm0,8.9v1.11h2.23v-1.11h-2.23Zm6.68-21.14v1.11h2.22v-1.11h-2.22Zm2.22,37.83v2.22h1.11v-2.22h-1.11Zm3.34-280.41h1.11V5126h-1.11v-2.22Zm1.11,85.68v2.23h1.11v-2.23h-1.11Zm1.11,170.25V5383h1.11v-3.34h-1.11Zm0,31.16v1.11h2.23v-1.11h-2.23Zm1.11-207h2.23v-2.22C3826.8,5201.82,3826.06,5202.56,3826.06,5203.86Zm1.11-77.89v1.11h2.23V5126h-2.23Zm0,228.11h1.11a2,2,0,0,0,2.22-2.23h-1.11C3827.91,5352,3827.17,5352.78,3827.17,5354.08Zm0,6.68V5363h2.23v-2.22h-2.23Zm1.11,28.93v1.11h2.22v-1.11h-2.22Zm2.22-247v1.11H3835v-2.22A8.81,8.81,0,0,1,3830.51,5142.66Zm1.11-26.71v1.11h2.23V5116h-2.23Zm2.23,33.38v2.23a2,2,0,0,0,2.22-2.23h-2.22Zm0,5.56c0.18,1.49.93,2.23,2.22,2.23v-2.23h-2.22Zm0,195.84q1.67,4.45,3.34,4.45v-1.11a8.56,8.56,0,0,1-1.11-3.34h-2.22Zm0,36.72q0.27,2.22,2.22,2.22v-2.22h-2.22Zm2.22-278.18v2.22h2.23A2,2,0,0,0,3836.07,5109.28Zm1.11,115.72c0.18,1.49.93,2.22,2.23,2.22l1.11-2.22h-3.34Zm1.11,135.75V5363h1.11v-2.22h-1.11Zm17.8-222.55q0,3.34-4.45,3.34l1.11,2.22-6.68,12.24,1.11,2.23v3.34c0,1.49-1.11,2.23-3.34,2.23l2.23,4.45a29.65,29.65,0,0,1-6.68,11.13v1.11l2.22-1.11q0,5,1.11,6.68a8.8,8.8,0,0,0-1.11,4.45,1,1,0,0,1,1.11,1.11c-1.49.19-2.23,0.93-2.23,2.22V5195h2.23l-2.23,3.34q2.22,0.28,2.23,2.23l-1.11,2.22q3.06,1.95,16.69,28.93,12.24,12,15.58,13.35,11.4-19.75,20-46.74,1.11-5.56,4.45-5.56l-1.11-2.22,10-20q-16.14-6.68-17.8-6.68a8.56,8.56,0,0,1-3.34,1.11q-13.91-7.51-18.92-15.58Q3866.12,5149.33,3856.1,5138.21Zm-16.69,213.64h2.22v-2.22C3840.15,5349.81,3839.41,5350.55,3839.41,5351.85Zm1.11-21.14v1.11a8.53,8.53,0,0,1,3.34,1.11v-2.23h-3.34Zm0,26.71v3.34a2,2,0,0,0,2.23-2.23v-1.11h-2.23Zm2.23-7.79v2.22h1.11v-2.22h-1.11Zm1.11,5.56h2.23a8.49,8.49,0,0,1,3.34-1.11V5353h-3.34C3844.6,5353.15,3843.86,5353.89,3843.86,5355.19Zm2.23-254.81v1.11h2.23v-1.11h-2.23Zm0,31.16v1.11h2.23v-1.11h-2.23Zm0,249.25v1.11h2.23v-1.11h-2.23Zm2.23-37.83v2.22h3.34a2,2,0,0,0-2.23-2.22h-1.11Zm0,21.14a1,1,0,0,0,1.11,1.11l-1.11,2.22v1.11h2.23a8.79,8.79,0,0,1,1.11-4.45h-3.34Zm1.11-24.48h1.11l5.56-1.11v-2.23Q3849.43,5337.38,3849.43,5339.61Zm1.11,8.9a8.61,8.61,0,0,1-1.11,3.34l2.23,1.11a8.78,8.78,0,0,1,1.11-4.45h-2.23Zm0-37.83v1.11h2.23v-1.11h-2.23Zm3.34,32.27-2.23-1.11v1.11a1,1,0,0,1,1.11,1.11,36.46,36.46,0,0,1,8.9-1.11v-1.11a2,2,0,0,1-2.23-2.22h-1.11ZM3855,5324l2.23,1.11h2.23v-4.45h-1.11Q3856.66,5320.7,3855,5324Zm171.36-406.14a1,1,0,0,0-1.11-1.11q0,1.39-12.24,5.56v-1.11q-23.93,7.79-34.49,17.8h-6.68v2.22h-1.11l-2.23-1.11q-4.17,6.68-34.49,24.48,0,1.12-11.13,10,0,1.67-11.13,8.9v2.22h-1.11l-2.23-1.11q0,2.5-4.45,3.34,0,7.51-17.8,20-16.69,21.14-16.69,24.48-0.84,0-6.68,7.79l1.11,2.23q-4.17,3.34-7.79,28.93l1.11,2.22v6.68l-1.11,11.13h5.56l3.34,2.22h1.11l6.68-5.56H3885l3.34,2.22q0.27-2.22,2.22-2.22,26.15,10.29,43.4,20,0.83-7,8.9-18.92,3.06-10.85,13.35-28.93,1.11-7.78,10-16.69l-1.11-2.23q10-21.42,16.69-28.93v2.23H3983v-4.45h2.23v-3.34L3983,5008v-3.34h4.45l-1.11-2.23a8.58,8.58,0,0,1,3.34-1.11v-1.11h-2.23V4998q1.39,0,5.56-6.68a1,1,0,0,0,1.11,1.11q0-2.78,6.68-6.68,0-2.22,5.56-10,0-5.56,14.47-14.46v2.22a2,2,0,0,0,2.23-2.22h-2.23q8.35-11.12,13.35-11.13l-2.23-3.34v-1.11q17.8-3.61,17.8-8.9l2.22,1.11,13.35-4.45q5.28,1.11,16.69,7.79h3.34q2.22,4.45,2.23,6.68-18.64,10.85-45.62,33.38h-2.23l1.11,2.22q-12.8,16.69-14.47,16.69l-6.68,7.79,1.11,2.23q0,2.23-3.34,2.22l1.11,2.23v1.11h-1.11l-2.23-1.11q0,6.67-4.45,6.68l1.11,5.56V5028q-4.45,0-14.47,20l-2.22,2.22,1.11,2.23v1.11q-4.17,6.68-6.68,6.68l1.11,2.22v1.11q-3.06,8.91-4.45,8.9a1,1,0,0,0-1.11-1.11v2.22h2.23q-3.34,13.91-8.9,22.25,0,1.67-2.23,8.9-2.78,0-3.34-4.45-1.67,0-3.34,3.34a8.89,8.89,0,0,0,5.56,2.22q-2.23,7.79-2.23,8.9h-2.22l1.11-2.23h-1.11a8.8,8.8,0,0,1-4.45,1.11v1.11q4.45,0.56,4.45,3.34-6.12,13.35-6.68,13.35v1.11q0.27,2.23,2.23,2.23,0.27-2.22,2.23-2.23h1.11v5.56l2.23-1.11,7.79,5.56q0-1.94,7.79-6.68H3993q0-2.5,5.56-8.9,0-5.84,5.56-8.9L4003,5116v-1.11l1.11-2.23q-16.69-3.89-16.69-11.13,0.55-10,3.34-10a1,1,0,0,0,1.11,1.11l-1.11-5.56v-1.11q2.22,0,8.9-5.56l1.11,2.22,2.22-1.11h1.11q11.12,0,18.92,16.69c-1.49.19-2.23,0.93-2.23,2.22q5.56,4.73,5.56,6.68-9.74,21.15-11.13,21.14l1.11,2.23a8.54,8.54,0,0,0-1.11,3.34h1.11q0,4.45-4.45,4.45l1.11,2.23v1.11l-3.34-2.23h-1.11l1.11,2.23a5.57,5.57,0,0,1-6.68,0v2.22l1.11,2.23q-5.84,8.91-6.68,8.9h-1.11a1,1,0,0,1-1.11-1.11,8.54,8.54,0,0,1-3.34,1.11l1.11,2.23v2.22l-1.11,2.22q5,2.23,5.56,4.45l-2.22,1.11h-3.34v-2.22l-2.22,1.11q1.67,6.68,7.79,6.68h1.11l-2.23-3.34v-1.11h1.11q2.5,0,4.45,7.79H4003v3.34h-1.11l-3.34-2.23v1.11q0,3.34,5.56,3.34v1.11l-2.23,3.34a19,19,0,0,1,5.56,7.79h1.11V5195l-1.11,2.22q1.39,0,7.79,15.58h1.11q15-6.4,42.28-38.95,0-3.61,14.47-21.14,25.59-39.78,36.72-96.81,4.73-27,6.68-31.16l-1.11-2.22q0-2.22,1.11-2.22l-1.11-11.13v-7.79a1,1,0,0,1,1.11-1.11l-1.11-2.22v-1.11q0-27.54-18.92-56.75l1.11-2.22q-2.78,0-7.79-7.79-2.5,0-6.68-3.34l1.11-2.23v-1.11l-2.23,1.11-5.56-3.34a1,1,0,0,1-1.11,1.11q-1.11-5.28-31.16-6.68h-3.34Q4036.36,4915.66,4026.35,4917.89Zm-169.13,322.69v1.11h2.23v-1.11h-2.23Zm0,92.36q0.27,2.22,2.23,2.22h1.11a2,2,0,0,0-2.22-2.22h-1.11Zm1.11-14.47h2.22v-2.22C3859.07,5316.43,3858.33,5317.17,3858.33,5318.47Zm0,11.13v2.23h2.22v-2.23h-2.22Zm5.56-193.61v1.11h2.22V5136h-2.22Zm1.11-23.37v1.11h2.23v-1.11H3865Zm0,207v1.11h2.23v-1.11H3865Zm2.23-201.4v1.11h2.23v-1.11h-2.23Zm2.23,11.13q20.86,26.7,34.49,26.7a18.66,18.66,0,0,1,8.9,2.23,255.72,255.72,0,0,1,17.8-38.95V5116q-5.57-6.68-15.58-6.68-14.75,0-43.4,15.58Zm1.11,176.92v1.11h2.23v-1.11h-2.23Zm4.45-15.58a8.58,8.58,0,0,1,1.11,3.34h1.11v-3.34H3875Zm6.68-8.9V5284h1.11v-2.23h-1.11Zm1.11-124.62v1.11H3885v-1.11h-2.22Zm5.56,110.16v2.22h1.11v-2.22h-1.11Zm5.56-27.82v2.22H3895v-2.22h-1.11Zm0,11.13v3.34q3.61-2.22,5.56-2.22v-1.11h-5.56Zm1.11-40.06v1.11h3.34v-1.11H3895Zm0,25.59v2.22h1.11v-2.22H3895Zm1.11-260.38V4978h1.11v-2.23h-1.11Zm1.11,245.91v1.11h2.23v-1.11h-2.23Zm0,50.07v1.11h3.34l1.11-2.23h-1.11A8.54,8.54,0,0,1,3897.28,5271.74Zm1.11-25.59v1.11h2.23v-1.11h-2.23Zm4.45-27.82v2.22H3904v-2.22h-1.11Zm0,10v3.34h2.23v-3.34h-2.23Zm5.56-11.13v1.11a8.84,8.84,0,0,1,1.11,4.45q-2.23.28-2.23,2.22l4.45,1.11V5225a8.79,8.79,0,0,1-1.11-4.45,1,1,0,0,0,1.11-1.11Zm1.11-57.86v1.11h3.34v-1.11h-3.34Zm0,55.64v1.11h2.23V5215h-2.23Zm61.2-49q0,3.34-7.79,3.34v-1.11q-5.29,3.34-14.47,3.34a1,1,0,0,0-1.11-1.11q-7.51,18.92-8.9,18.92l1.11,2.22q0,1.67-4.45,3.34l1.11,2.22v1.11H3934l1.11,2.23q-2.23,4.45-5.56,4.45v2.23a8.62,8.62,0,0,1,3.34,1.11q0,1.95-6.68,7.79v1.11h2.23v1.11a9.67,9.67,0,0,0-2.23,6.68l-3.34-2.22V5225h2.23v2.22h-2.23a1,1,0,0,0,1.11,1.11q0,8.63-10,20l1.11,6.68c-1.49.19-2.22,0.93-2.22,2.22a1,1,0,0,1,1.11,1.11q27.26-2.22,72.33-23.37,20-12.24,21.14-18.92a2,2,0,0,1-2.23-2.22,1,1,0,0,0,1.11-1.11q-5.57-3.06-5.56-4.45v-4.45l1.11-2.22a8.51,8.51,0,0,1-3.34-1.11l1.11-2.23q-0.56-3.34-5.56-7.79l1.11-2.23q0-.83-13.35-20V5166h-2.23A9.46,9.46,0,0,1,3970.72,5166Zm-53.41,37.83q0,3.34-2.23,3.34v1.11h3.34a1,1,0,0,1,1.11-1.11,8.5,8.5,0,0,1-1.11-3.34h-1.11Zm-1.11,6.68v2.23h2.23A2,2,0,0,0,3916.19,5210.53Zm1.11,3.34V5215c0.18,1.49.93,2.23,2.23,2.23a2,2,0,0,0,2.23-2.23A8.79,8.79,0,0,1,3917.3,5213.87Zm1.11-12.24v1.11h2.22v-1.11h-2.22Zm0,16.69v2.22h1.11v-2.22h-1.11Zm2.22-22.25v1.11h2.23v-1.11h-2.23Zm5.56-243.69v1.11h2.23v-1.11h-2.23ZM3934,5116v2.23h1.11V5116H3934Zm11.13-11.13-1.11,2.22v1.11c0.18,1.49.93,2.22,2.23,2.22l1.11-2.22v-1.11A2,2,0,0,0,3945.12,5104.83Zm4.45,52.3v2.22h2.23v-2.22h-2.23Zm5.56-6.68,1.11,2.23v2.22H3954v2.23c1.48,0,2.22.37,2.22,1.11q8.9-3.34,12.24-7.79v-1.11q-3.62-7.23-6.68-7.79h-1.11q-1.67,0-4.45,8.9h-1.11Zm3.34-92.36v1.11h2.23v-1.11h-2.23Zm3.34,61.2v1.11a2,2,0,0,0,2.23-2.22v-1.11Q3961.81,5117.35,3961.81,5119.29Zm0,4.45,2.23,1.11v-3.34Q3961.81,5121.8,3961.81,5123.74Zm3.34-3.34v2.22h1.11v-2.22h-1.11Zm1.11-3.34v2.23a2,2,0,0,0,2.23-2.23h-2.23Zm2.23-74.55v2.22h1.11v-2.22h-1.11Zm6.68,50.07a8.8,8.8,0,0,0-1.11,4.45l-2.23-1.11h-1.11V5097q1.67,0,4.45,3.34h1.11v-1.11l-1.11-2.22A2.23,2.23,0,1,0,3975.17,5092.59Zm0-65.65v2.22h1.11v-2.22h-1.11Zm3.34,56.75v2.23a2,2,0,0,0,2.22-2.23h-2.22Zm3.34-6.68v2.22H3983V5077h-1.11Zm4.45-55.64v2.22a8.58,8.58,0,0,1,3.34-1.11v-1.11h-3.34Zm2.23,136.87v2.22a2,2,0,0,0,2.23-2.22h-2.23Zm2.23-104.6-1.11,2.22H3993A2,2,0,0,0,3990.74,5053.64Zm3.34,33.38v1.11h2.23V5087h-2.23Zm2.23-77.89v1.11h2.23v-1.11h-2.23Zm0,3.34v1.11h3.34v-1.11h-3.34Zm15.58,92.36v1.11h2.22v-1.11h-2.22Zm0,30v2.22H4013v-2.22h-1.11Zm5.56-154.67v2.23h1.11v-2.23h-1.11Zm0,5.56v1.11h2.23v-1.11h-2.23Zm11.13-3.34v2.22a2.49,2.49,0,0,0,2.23-4.45C4029.32,4980.39,4028.58,4981.13,4028.58,4982.43Zm2.23,230.33v1.11h4.45l-1.11-2.22A8.56,8.56,0,0,1,4030.8,5212.76Zm5.56-264.83h1.11a2,2,0,0,0,2.23-2.22h-1.11C4037.1,4945.89,4036.37,4946.64,4036.37,4947.93Zm43.4,201.4v1.11h3.34v-1.11h-3.34Zm8.9,241.46v1.11q3.06,5.56,4.45,5.56v-1.11Q4090.33,5390.79,4088.66,5390.8Zm2.23-213.64v1.11h4.45v-1.11h-4.45Zm2.22-263.72q2.22,0.28,2.23,2.22h-2.23v-2.22Zm3.34,442.87v2.22h1.11v-2.22h-1.11Zm1.11,47.85v1.11h2.23v-1.11h-2.23Zm10-467.35V4939h1.11v-2.23h-1.11Zm2.23,132.42v2.22h1.11v-2.22h-1.11Zm1.11-134.64v1.11h2.23v-1.11h-2.23Zm2.23,126.85v2.23a2,2,0,0,0,2.23-2.23h-2.23Zm0,86.79v2.22a2,2,0,0,0,2.23-2.22h-2.23Zm1.11,282.63q2.22,0.27,2.23,2.22v1.11a2,2,0,0,1-2.23-2.22v-1.11Zm2.23,4.45h1.11q0.84,0.27,12.24,14.47V5452h-1.11Q4116.48,5438.92,4116.48,5435.3Zm16.69-341.61v1.11h2.23v-1.11h-2.23Zm1.11-47.85V5047h2.23v-1.11h-2.23Zm0,43.4v1.11h2.23v-1.11h-2.23Zm3.34-101.26v1.11h2.22V4988h-2.22Zm4.45,2.22v1.11h3.34v-2.22A8.53,8.53,0,0,1,4142.07,4990.21Zm6.68-3.34v2.22h1.11v-2.22h-1.11Zm17.8,446.2v1.11h2.23v-1.11h-2.23Zm0,3.34v2.22h1.11v-2.22h-1.11Zm67.88,33.38v1.11h2.23v-1.11h-2.23Zm3.34-93.47v2.22h1.11v-2.22h-1.11Zm1.11,121.29v2.22H4240v-2.22h-1.11Zm8.9-28.93v1.11H4250v-1.11h-2.23Zm10,2.22V5472H4260v-1.11h-2.22Zm15.58,2.22v2.23h1.11v-2.23h-1.11Zm70.1-132.41-1.11,2.23h3.34A2,2,0,0,0,4343.48,5340.72Zm15.58,52.3v2.22h1.11V5393h-1.11Z" transform="translate(-3656.93 -4904.53)"/><path class="cls-1" d="M4190.48,5112.61q30,0,30,17.8,2.22,0.28,2.23,2.22a1,1,0,0,1-1.11,1.11l1.11,2.23q-1.67,6.68-3.34,6.68l1.11,2.22A61,61,0,0,1,4215,5156l-2.23-1.11h-2.23l1.11,5.56q-11.13,11.13-11.13,14.47-12.24,6.12-12.24,8.9l-2.23-1.11h-1.11q0,4.45-13.35,7.79,0,0.83-3.34,3.34l-2.23-1.11q-3.62,0-10,4.45a2,2,0,0,1-2.23-2.22q-21.14,4.73-21.14,18.92,0,2.23-3.34,7.79l1.11,2.23q-0.83,7.79-2.23,7.79l2.23,5.56c-1.49.19-2.23,0.93-2.23,2.23q1.39,0,4.45,7.79v1.11l-1.11,2.23q3.34,0,3.34,2.22v3.34l13.35,8.9a1,1,0,0,1,1.11-1.11q0,1.67,7.79,4.45,0.27-2.22,2.22-2.22l1.11,2.22q5.84-1.11,6.68-1.11t6.68,1.11q19.47,0,43.4-30,12.24-17,12.24-20,4.73-5,10-21.14l2.22-1.11H4245a8.89,8.89,0,0,0,2.22,5.56q-3.34,0-3.34,11.13h-1.11l-2.23-1.11v4.45q-7.24,13.35-8.9,13.35l1.11,2.22a39.81,39.81,0,0,0-8.9,12.24q-1.67,0-3.34,2.23l1.11,2.22q-5.57,4.17-5.56,6.68a16.5,16.5,0,0,0-6.68,7.79l-27.82,17.8a8.62,8.62,0,0,0-3.34-1.11,2,2,0,0,1-2.23,2.22h-2.22a1,1,0,0,1-1.11-1.11,24.79,24.79,0,0,0-7.79,3.34h-1.11a1,1,0,0,1-1.11-1.11,12.93,12.93,0,0,1-6.68,2.22h-2.23a1,1,0,0,1-1.11-1.11,1,1,0,0,0-1.11,1.11q-11.13-1.39-11.13-4.45l-5.56,1.11h-3.34l-18.92-14.46v-2.23l1.11-2.22q-4.45,0-8.9-8.9h-1.11l1.11-2.22q-5.29,0-6.68-26.71h1.11a1,1,0,0,0-1.11-1.11q2.23-16.69,4.45-16.69l-1.11-2.23q11.4-33.65,25.59-50.07,3.34-6.4,12.24-11.13,10-14.46,22.25-18.92a1,1,0,0,0,1.11,1.11q0-3.61,23.37-12.24v1.11Zm-76.78,75.67v1.11h2.22v-1.11h-2.22Zm0,20v1.11h2.22v-1.11h-2.22Zm7.79,37.83v1.11h2.22v-1.11h-2.22Zm16.69-83.45v1.11h2.22v-1.11h-2.22Zm0,15.58v2.23h1.11v-2.23h-1.11Zm2.22-3.34v2.22h1.11v-2.22h-1.11Zm2.23,13.35v1.11q24.2-5.84,50.07-28.93,0-5.28,8.9-10l-1.11-2.22a32.12,32.12,0,0,0,5.56-10l-1.11-2.22,1.11-2.23q-0.83-7.78-5.56-7.79-19.47,7.51-23.37,16.69-14.19,10.29-18.92,22.25-4.73,3.62-13.35,21.14C4143.37,5186.24,4142.63,5187,4142.63,5188.28Zm16.69-42.28v2.22h1.11V5146h-1.11Zm0,38.95v2.22a2,2,0,0,0,2.23-2.22h-2.23Zm1.11-45.62v2.23h1.11v-2.23h-1.11Zm8.9-2.22v1.11h2.23v-1.11h-2.23Zm2.23-3.34V5136h1.11v-2.23h-1.11Zm13.35,42.28v1.11h2.23V5176h-2.23Zm5.56-4.45v1.11h1.11a8.58,8.58,0,0,1,3.34-1.11v-1.11h-1.11A8.54,8.54,0,0,1,4190.48,5171.59Zm1.11,3.34v2.22h2.23A2,2,0,0,0,4191.59,5174.93Zm22.25-23.37v2.22H4215v-2.22h-1.11Zm1.11-26.71v2.22h1.11v-2.22H4215Zm23.37,87.91V5215h1.11v-2.22h-1.11Z" transform="translate(-3656.93 -4904.53)"/><path class="cls-1" d="M4268.37,5097q0,1.11,4.45,3.34a18.64,18.64,0,0,1,8.9-2.22h2.23q4.45,1.67,4.45,7.79a1,1,0,0,1-1.11,1.11,8.62,8.62,0,0,1,1.11,3.34q-3.06,12.25-4.45,12.24a1,1,0,0,0,1.11,1.11l-3.34,26.7a11.4,11.4,0,0,1,1.11,5.56h-1.11q2.22,5.57,2.23,7.79h-1.11a8.62,8.62,0,0,1,1.11,3.34l-1.11,2.23,2.23,4.45q0,5.57-2.23,5.56l1.11,2.22a1,1,0,0,1-1.11,1.11q1.39,1.67,2.23,11.13l-1.11,2.23,1.11,6.68v4.45l-1.11,2.22q2.22,0.28,2.23,2.23V5225q3.34,15.58,3.34,18.92a8.55,8.55,0,0,0-1.11,3.34l2.23,1.11q2.22,0,5.56-6.68,17.8-15.86,31.16-42.28,4.73-4.73,14.47-20,4.45-4.45,7.79-4.45v-2.23h-2.23v-2.22q0.27-2.22,2.23-2.22l2.23,1.11,1.11-2.23-1.11-5.56,2.22-1.11,2.22,1.11q0-5.56,2.23-5.56l-1.11-2.22a39.16,39.16,0,0,0,10-8.9h1.11v-2.22l-1.11-2.22q3.34,0,8.9-14.47h3.34l-1.11-5.56h1.11l2.22,1.11v-1.11a8.49,8.49,0,0,1-1.11-3.34q4.73-11.12,15.58-11.13,0,1.67,3.34,3.34-1.95,20-8.9,20l1.11,2.22v1.11q-3.62,6.68-7.79,7.79l1.11,2.22q-6.4,3.9-15.58,26.71-8.07,6.68-16.69,27.82-2.23,5.57-5.56,5.56a8.61,8.61,0,0,1,1.11,3.34,70.87,70.87,0,0,1-7.79,13.35l1.11,2.22q-1.95,1.12-20,25.59h-1.11l1.11,2.22a47,47,0,0,0-7.79,10l-25.59,23.37q-7.24,2.23-10,2.22h-4.45q-21.14-6.68-21.14-13.35l-6.68-28.93a1,1,0,0,1,1.11-1.11q-4.45-29.76-4.45-40.06v-4.45a9.46,9.46,0,0,1,0-8.9l-1.11-2.22a1,1,0,0,1,1.11-1.11l-1.11-7.79v-14.46a1,1,0,0,1,1.11-1.11l-1.11-2.22a1,1,0,0,1,1.11-1.11q-2.22-4.45-2.23-6.68,1.12-13.35,1.11-20l-1.11-5.56a36.47,36.47,0,0,0,1.11-8.9V5116l-1.11-5.56a1,1,0,0,0,1.11-1.11,2,2,0,0,1-2.23-2.23q0-4.73,7.79-8.9a12.9,12.9,0,0,0,6.68,2.22h2.23Q4256.68,5100.37,4268.37,5097Zm7.79,10c0.18,1.49.93,2.23,2.23,2.23v-2.23h-2.23Z" transform="translate(-3656.93 -4904.53)"/><path class="cls-1" d="M4458.37,5112.61q30,0,30,17.8,2.22,0.28,2.23,2.22a1,1,0,0,1-1.11,1.11l1.11,2.23q-1.67,6.68-3.34,6.68l1.11,2.22a61,61,0,0,1-5.56,11.13l-2.22-1.11h-2.22l1.11,5.56q-11.13,11.13-11.13,14.47-12.25,6.12-12.24,8.9l-2.22-1.11h-1.11q0,4.45-13.35,7.79,0,0.83-3.34,3.34l-2.23-1.11q-3.62,0-10,4.45a2,2,0,0,1-2.23-2.22q-21.14,4.73-21.14,18.92,0,2.23-3.34,7.79l1.11,2.23q-0.84,7.79-2.23,7.79l2.23,5.56q-2.23.28-2.23,2.23,1.39,0,4.45,7.79v1.11l-1.11,2.23q3.34,0,3.34,2.22v3.34l13.35,8.9a1,1,0,0,1,1.11-1.11q0,1.67,7.79,4.45,0.27-2.22,2.22-2.22l1.11,2.22q5.84-1.11,6.68-1.11t6.68,1.11q19.47,0,43.4-30,12.24-17,12.24-20,4.73-5,10-21.14l2.22-1.11h3.34a8.89,8.89,0,0,0,2.22,5.56q-3.34,0-3.34,11.13h-1.11l-2.22-1.11v4.45q-7.24,13.35-8.9,13.35l1.11,2.22a39.78,39.78,0,0,0-8.9,12.24q-1.67,0-3.34,2.23l1.11,2.22q-5.57,4.17-5.56,6.68a16.5,16.5,0,0,0-6.68,7.79l-27.82,17.8a8.62,8.62,0,0,0-3.34-1.11,2,2,0,0,1-2.23,2.22h-2.22a1,1,0,0,1-1.11-1.11,24.8,24.8,0,0,0-7.79,3.34h-1.11a1,1,0,0,1-1.11-1.11,12.93,12.93,0,0,1-6.68,2.22h-2.23a1,1,0,0,1-1.11-1.11,1,1,0,0,0-1.11,1.11q-11.13-1.39-11.13-4.45l-5.56,1.11h-3.34l-18.92-14.46v-2.23l1.11-2.22q-4.45,0-8.9-8.9h-1.11l1.11-2.22q-5.29,0-6.68-26.71h1.11a1,1,0,0,0-1.11-1.11q2.23-16.69,4.45-16.69l-1.11-2.23q11.4-33.65,25.59-50.07,3.34-6.4,12.24-11.13,10-14.46,22.25-18.92a1,1,0,0,0,1.11,1.11q0-3.61,23.37-12.24v1.11Zm-76.78,75.67v1.11h2.22v-1.11h-2.22Zm0,20v1.11h2.22v-1.11h-2.22Zm7.79,37.83v1.11h2.23v-1.11h-2.23Zm16.69-83.45v1.11h2.23v-1.11h-2.23Zm0,15.58v2.23h1.11v-2.23h-1.11Zm2.23-3.34v2.22h1.11v-2.22h-1.11Zm2.22,13.35v1.11q24.2-5.84,50.07-28.93,0-5.28,8.9-10l-1.11-2.22a32.15,32.15,0,0,0,5.56-10l-1.11-2.22,1.11-2.23q-0.84-7.78-5.56-7.79-19.48,7.51-23.37,16.69-14.19,10.29-18.92,22.25-4.73,3.62-13.35,21.14C4411.26,5186.24,4410.52,5187,4410.52,5188.28Zm16.69-42.28v2.22h1.11V5146h-1.11Zm0,38.95v2.22a2,2,0,0,0,2.23-2.22h-2.23Zm1.11-45.62v2.23h1.11v-2.23h-1.11Zm8.9-2.22v1.11h2.22v-1.11h-2.22Zm2.22-3.34V5136h1.11v-2.23h-1.11ZM4452.8,5176v1.11H4455V5176h-2.22Zm5.56-4.45v1.11h1.11a8.58,8.58,0,0,1,3.34-1.11v-1.11h-1.11A8.53,8.53,0,0,1,4458.37,5171.59Zm1.11,3.34v2.22h2.22A2,2,0,0,0,4459.48,5174.93Zm22.25-23.37v2.22h1.11v-2.22h-1.11Zm1.11-26.71v2.22H4484v-2.22h-1.11Zm23.37,87.91V5215h1.11v-2.22h-1.11Z" transform="translate(-3656.93 -4904.53)"/><path class="cls-1" d="M4451.69,5269.51q0-1.39,7.79-7.79,2.22-5.28,12.24-12.24,0-4.17,10-11.13l17.8-25.59q11.68-15.58,20-40.06a20.58,20.58,0,0,0,7.79-16.69,8.58,8.58,0,0,1,3.34-1.11l-1.11-2.22q2.22-7.23,2.23-10v-1.11q-16.42-6.68-37.83-21.14-2.23,0-4.45-5.56a1,1,0,0,0,1.11-1.11q-1.4,0-6.68-8.9a1,1,0,0,1,1.11-1.11q-3.34-8.9-3.34-11.13v-11.13q1.67-17.8,11.13-17.8a1,1,0,0,0,1.11,1.11,16.59,16.59,0,0,1,14.46-7.79q20,0,37.83,16.69,7.78,16.69,7.79,30a158.82,158.82,0,0,1-5.56,25.59v5.56h5.56a11.34,11.34,0,0,0,5.56-1.11,32.58,32.58,0,0,0,7.79,1.11q17.25,0,57.86-16.69c0.18,1.49.93,2.22,2.22,2.22q0.27-2.22,2.23-2.22,18.91,14.19,18.92,16.69-32.83,59.81-41.17,83.45a1,1,0,0,0,1.11,1.11q0,3.62-4.45,18.92l1.11,2.23v1.11l-1.11,2.22q2.22,0.28,2.22,2.23c-1.49.19-2.22,0.93-2.22,2.22q0,13.63,18.92,28.93l11.13,1.11q15,0,33.38-26.71l23.37-43.4H4692q3.06,0,4.45,8.9-2.23,0-10,22.25-1.4,0-11.13,17.8-22.53,28.93-44.51,28.93h-4.45q-30.88,0-42.28-20-2.78,0-6.68-26.71,0-23.64,36.72-102.37V5136q-14.47,12.24-50.07,12.24-6.68-2.22-6.68-3.34l-2.22,1.11h-3.34l-3.34-2.23h-1.11q-1.67,0-6.68,20-4.17,10.85-6.68,11.13l1.11,2.22-7.79,14.47,1.11,2.22-30,42.28q-5.84,7.79-20,20,0,3.62-6.68,7.79-5.84,7.79-10,7.79l1.11,2.22v1.11q-1.67,0-15.3,9.18l-6.68-3.62Q4442.23,5274.52,4451.69,5269.51Zm59-178-2.23,3.34v4.45q7.51,19.76,27.82,30a8.79,8.79,0,0,1,1.11-4.45Q4537.37,5101.49,4510.67,5091.47Zm25.59-5.56h1.11a2,2,0,0,0,2.22-2.23h-1.11C4537,5083.87,4536.26,5084.61,4536.26,5085.91Zm49,141.32v2.23h2.23v-2.23h-2.23Zm10-30v1.11h2.23v-1.11h-2.23Zm2.23,33.38h2.22v-2.22C4598.2,5228.53,4597.46,5229.27,4597.46,5230.56Zm3.34-46.74v2.23h1.11v-2.23h-1.11Zm3.34,2.23v2.22a2,2,0,0,0,2.22-2.22h-2.22Zm3.34,14.47v1.11h2.22v-1.11h-2.22Z" transform="translate(-3656.93 -4904.53)"/><path class="cls-1" d="M4731.26,5110.39l5.56,1.11a1,1,0,0,1,1.11-1.11q0,2.23,3.34,2.22a86.85,86.85,0,0,0,12.24-1.11q7.78,0.84,7.79,2.23l2.23-1.11q1.67,0,3.34,3.34-12.8,14.75-41.17,75.67a1,1,0,0,1,1.11,1.11q-1.95,0-12.24,32.27-1.4,0-3.34,13.35v5.56l2.22,3.34v1.11a1,1,0,0,1-1.11,1.11q11.12,23.37,18.92,23.37,0-1.94,10-5.56,11.12-5.84,21.14-26.71,10-19.19,10-23.37,3.34-12.24,7.79-12.24v-8.9q0.27-2.22,2.22-2.23h2.23q0,2.23,2.22,7.79h-1.11a1,1,0,0,0,1.11,1.11q-0.84,5.84-21.14,49-10.85,15.58-12.24,15.58a64.53,64.53,0,0,1-37.83,17.8l-2.23-1.11-2.22,1.11q-22.26-5.84-22.25-10-8.91-12.79-8.9-16.69v-1.11a1,1,0,0,1,1.11-1.11l-2.23-4.45a2,2,0,0,0,2.23-2.23q-3.34,0-3.34-3.34,1.95-18.91,6.68-18.92l-1.11-2.22v-3.34q4.17-4.45,6.68-14.46l3.34-2.23-1.11-2.22q12-37.83,15.58-37.83l-1.11-2.22v-1.11q0-2.22,3.34-2.22l-1.11-2.22,10-23.37Q4726,5110.39,4731.26,5110.39Zm-36.72,146.88v1.11h2.22v-1.11h-2.22Zm10-85.68v2.23a2,2,0,0,0,2.22-2.23h-2.22Zm1.11-2.22v1.11h2.22v-1.11h-2.22Zm0,20v1.11h2.22v-1.11h-2.22Zm3.34,86.79v1.11h2.22v-1.11H4709Zm35.61-249.25H4748q12,0,15.58,20v6.68q-7.51,12.24-24.48,12.24-8.91-6.95-8.9-15.58Q4730.15,5037.23,4744.62,5026.93Zm1.11,91.24v2.22a2,2,0,0,0,2.23-2.22h-2.23Z" transform="translate(-3656.93 -4904.53)"/><path class="cls-1" d="M4863.12,5112.61q30,0,30,17.8,2.22,0.28,2.23,2.22a1,1,0,0,1-1.11,1.11l1.11,2.23q-1.67,6.68-3.34,6.68l1.11,2.22a61,61,0,0,1-5.56,11.13l-2.22-1.11h-2.22l1.11,5.56q-11.13,11.13-11.13,14.47-12.25,6.12-12.24,8.9l-2.22-1.11h-1.11q0,4.45-13.35,7.79,0,0.83-3.34,3.34l-2.23-1.11q-3.62,0-10,4.45a2,2,0,0,1-2.23-2.22q-21.14,4.73-21.14,18.92,0,2.23-3.34,7.79l1.11,2.23q-0.84,7.79-2.23,7.79l2.23,5.56q-2.23.28-2.23,2.23,1.39,0,4.45,7.79v1.11l-1.11,2.23q3.34,0,3.34,2.22v3.34l13.35,8.9a1,1,0,0,1,1.11-1.11q0,1.67,7.79,4.45,0.27-2.22,2.22-2.22l1.11,2.22q5.84-1.11,6.68-1.11t6.68,1.11q19.47,0,43.4-30,12.24-17,12.24-20,4.73-5,10-21.14l2.22-1.11h3.34a8.89,8.89,0,0,0,2.22,5.56q-3.34,0-3.34,11.13h-1.11l-2.22-1.11v4.45q-7.24,13.35-8.9,13.35l1.11,2.22a39.78,39.78,0,0,0-8.9,12.24q-1.67,0-3.34,2.23l1.11,2.22q-5.57,4.17-5.56,6.68a16.5,16.5,0,0,0-6.68,7.79l-27.82,17.8a8.62,8.62,0,0,0-3.34-1.11,2,2,0,0,1-2.23,2.22h-2.22a1,1,0,0,1-1.11-1.11,24.8,24.8,0,0,0-7.79,3.34h-1.11a1,1,0,0,1-1.11-1.11,12.93,12.93,0,0,1-6.68,2.22h-2.23a1,1,0,0,1-1.11-1.11,1,1,0,0,0-1.11,1.11q-11.13-1.39-11.13-4.45l-5.56,1.11h-3.34l-18.92-14.46v-2.23l1.11-2.22q-4.45,0-8.9-8.9h-1.11l1.11-2.22q-5.29,0-6.68-26.71h1.11a1,1,0,0,0-1.11-1.11q2.23-16.69,4.45-16.69l-1.11-2.23q11.4-33.65,25.59-50.07,3.34-6.4,12.24-11.13,10-14.46,22.25-18.92a1,1,0,0,0,1.11,1.11q0-3.61,23.37-12.24v1.11Zm-76.78,75.67v1.11h2.22v-1.11h-2.22Zm0,20v1.11h2.22v-1.11h-2.22Zm7.79,37.83v1.11h2.23v-1.11h-2.23Zm16.69-83.45v1.11H4813v-1.11h-2.23Zm0,15.58v2.23h1.11v-2.23h-1.11Zm2.23-3.34v2.22h1.11v-2.22H4813Zm2.22,13.35v1.11q24.2-5.84,50.07-28.93,0-5.28,8.9-10l-1.11-2.22a32.15,32.15,0,0,0,5.56-10l-1.11-2.22,1.11-2.23q-0.84-7.78-5.56-7.79-19.48,7.51-23.37,16.69-14.19,10.29-18.92,22.25-4.73,3.62-13.35,21.14C4816,5186.24,4815.27,5187,4815.27,5188.28ZM4832,5146v2.22h1.11V5146H4832Zm0,38.95v2.22a2,2,0,0,0,2.23-2.22H4832Zm1.11-45.62v2.23h1.11v-2.23h-1.11Zm8.9-2.22v1.11h2.22v-1.11H4842Zm2.22-3.34V5136h1.11v-2.23h-1.11Zm13.35,42.28v1.11h2.22V5176h-2.22Zm5.56-4.45v1.11h1.11a8.58,8.58,0,0,1,3.34-1.11v-1.11h-1.11A8.53,8.53,0,0,1,4863.12,5171.59Zm1.11,3.34v2.22h2.22A2,2,0,0,0,4864.23,5174.93Zm22.25-23.37v2.22h1.11v-2.22h-1.11Zm1.11-26.71v2.22h1.11v-2.22h-1.11Zm23.37,87.91V5215h1.11v-2.22H4911Z" transform="translate(-3656.93 -4904.53)"/><path class="cls-1" d="M4222.22,5091.43q0-.2-2.05-0.59a20.16,20.16,0,0,1-4.1.41h-1q-2.05-.29-2.06-1.39c0-.13.17-0.2,0.51-0.2a1.13,1.13,0,0,1-.52-0.6q1.4-2.2,2-2.2c0-.13-0.17-0.2-0.51-0.2l1.52-4.78a1.14,1.14,0,0,1-.52-1H4216a2.94,2.94,0,0,1-1-1.39h0.51a1.14,1.14,0,0,1-.52-0.6l0.51-.4-1-.79a0.89,0.89,0,0,1,1-1l-0.51-.4c0-.13.17-0.2,0.51-0.2a2.83,2.83,0,0,1-1-2l0.51-.4-0.52-1.19v-0.8l0.51-.4c-0.68,0-1-.16-1-0.4v-2.39a12.33,12.33,0,0,1-1.55-3.38,1.13,1.13,0,0,0,.51-0.6l-1-.2a4.6,4.6,0,0,0-2.56,1.2,50.36,50.36,0,0,0-14.33,7.61,48.16,48.16,0,0,0-6.65,3.61,10.15,10.15,0,0,1-3.59.81v0.4h1v0.4a1,1,0,0,1-1,.4l-1-.2-0.51.4,0.52,1-1,.2-1-.2a0.89,0.89,0,0,1-1,1l0.51,0.4a22.7,22.7,0,0,0-4.61,1.61h-0.51v0.4l0.51,0.4q-1.54,0-4.09,2.6h-1.54l0.52,1h-0.51l-1-.2v0.2a1.11,1.11,0,0,1,.51.6q-2.17,2-7.17,2,0-.3-1.54-0.59,0.88-3.59,4.09-3.6l-0.51-.4v-0.2a7.38,7.38,0,0,1,3.58-1.41l-0.51-.4q2.95-.71,7.16-4.8a20.71,20.71,0,0,0,7.67-5,3.53,3.53,0,0,1,2.56-1,1.13,1.13,0,0,1-.52-0.59,18.78,18.78,0,0,1,3.58-2.4l-0.51-.4a100.12,100.12,0,0,0,9.21-4.61H4198l-0.51-.4a18.19,18.19,0,0,0,3.58-1.8l11.78-4.22a45.87,45.87,0,0,1,4.61-.41h2.05q9.75,1.16,9.75,2.36l3.09,5.17c0,0.13-.17.2-0.51,0.2q2.07,5.32,2.08,7.16v0.8a0.88,0.88,0,0,1,0,1.59l0.51,0.4c0,0.13-.17.2-0.51,0.2l0.52,1.39v2.59c0,0.13-.17.2-0.51,0.2l0.51,0.4c0,0.13-.17.2-0.51,0.2a2.24,2.24,0,0,1,1,1.19,18.78,18.78,0,0,0-.5,3.59l0.52,1a2.92,2.92,0,0,0-.51,1.59v0.2l0.52,1q-0.51,0-.51.2,1,0,1,.4,0,0.84-3.58,1.6a13.27,13.27,0,0,0-3.08-.39h-1Q4227.6,5090.81,4222.22,5091.43Zm-3.59-1.78a1,1,0,0,0-1-.4v0.4h1Z" transform="translate(-3656.93 -4904.53)"/></svg>